<?xml version="1.0" encoding="UTF-8" standalone="no"?>
<!DOCTYPE svg PUBLIC "-//W3C//DTD SVG 1.1//EN" "http://www.w3.org/Graphics/SVG/1.1/DTD/svg11.dtd">
<!-- Created with Vectornator (http://vectornator.io/) -->
<svg height="100%" stroke-miterlimit="10" style="fill-rule:nonzero;clip-rule:evenodd;stroke-linecap:round;stroke-linejoin:round;" version="1.1" viewBox="0 0 16 16" width="100%" xml:space="preserve" xmlns="http://www.w3.org/2000/svg" xmlns:xlink="http://www.w3.org/1999/xlink">
<defs/>
<g id="xql">
<g opacity="1">
<path d="M1 15.8C1 15.9105 1.08954 16 1.2 16L15.8 16C15.9105 16 16 15.9105 16 15.8L16 9.2C16 9.08954 15.9105 9 15.8 9L1.2 9C1.08954 9 1 9.08954 1 9.2L1 15.8Z" fill="#f43db4" fill-opacity="0.7" fill-rule="evenodd" opacity="1" stroke="none"/>
<path d="M10.9563 14.3246C11.0421 14.3975 11.0508 14.5268 10.9756 14.6106L10.701 14.9165C10.6274 14.9985 10.5013 15.0055 10.419 14.9321L9.9882 14.5474C9.5811 14.8372 9.0774 15.0028 8.5185 15.0028C7.035 15.0028 6 13.8781 6 12.5188C6 11.1457 7.0488 10.0072 8.5323 10.0072C10.0158 10.0072 11.0508 11.1319 11.0508 12.4912C11.0508 13.057 10.8714 13.5676 10.5609 13.9885L10.9563 14.3246ZM8.53188 14.1162C8.82987 14.1162 9.08899 14.0447 9.31572 13.9148L8.68536 13.3714C8.60092 13.2986 8.59229 13.1708 8.66618 13.0874L8.95901 12.7565C9.03303 12.6729 9.16119 12.6661 9.24365 12.7414L9.89045 13.3321C10.033 13.0852 10.0607 12.8428 10.0607 12.518L10.0607 12.505C10.0607 11.6214 9.41937 10.8938 8.51892 10.8938C7.61847 10.8938 7 11.6084 7 12.492L7 12.505C7 13.3886 7.63143 14.1162 8.53188 14.1162Z" fill="#231f20" fill-opacity="0.7" fill-rule="evenodd" opacity="1" stroke="none"/>
<path d="M12 10.2C12 10.0895 12.0895 10 12.2 10L12.8 10C12.9105 10 13 10.0895 13 10.2L13 13.8C13 13.9105 13.0895 14 13.2 14L15.3 14C15.4105 14 15.5 14.0895 15.5 14.2L15.5 14.8C15.5 14.9105 15.4105 15 15.3 15L12.2 15C12.0895 15 12 14.9105 12 14.8L12 10.2Z" fill="#231f20" fill-opacity="0.7" fill-rule="evenodd" opacity="1" stroke="none"/>
<path d="M5.77357 14.7664C5.85719 14.8996 5.76145 15.0727 5.60419 15.0727L4.80502 15.0727C4.73251 15.0727 4.66568 15.0335 4.63036 14.9701L3.90039 13.6614C3.82515 13.5265 3.63189 13.5242 3.55344 13.6572L2.77685 14.9743C2.74089 15.0353 2.67537 15.0727 2.60457 15.0727L1.85792 15.0727C1.70043 15.0727 1.60473 14.8991 1.68879 14.766L3.04832 12.6119C3.08928 12.547 3.08949 12.4644 3.04888 12.3993L1.7646 10.3406C1.68149 10.2073 1.77728 10.0347 1.93429 10.0347L2.71326 10.0347C2.78625 10.0347 2.85344 10.0745 2.88857 10.1384L3.55752 11.3568C3.63299 11.4942 3.83007 11.4953 3.90706 11.3587L4.59601 10.1365C4.63146 10.0736 4.69805 10.0347 4.77024 10.0347L5.50647 10.0347C5.66416 10.0347 5.75982 10.2087 5.67536 10.3418L4.39629 12.3582C4.35498 12.4233 4.35479 12.5064 4.39579 12.5717L5.77357 14.7664Z" fill="#231f20" fill-opacity="0.7" fill-rule="nonzero" opacity="1" stroke="none"/>
</g>
<g opacity="1">
<path d="M1.04361 1.13951C1.04361 1.02905 1.13315 0.93951 1.24361 0.93951L7.57147 0.93951C7.68193 0.93951 7.77147 1.02905 7.77147 1.13951L7.77147 8.15881C7.77147 8.26927 7.68193 8.35881 7.57147 8.35881L1.24361 8.35881C1.13315 8.35881 1.04361 8.26927 1.04361 8.15881L1.04361 1.13951Z" fill="#728898" fill-rule="nonzero" opacity="1" stroke="none"/>
<g opacity="1">
<path d="M1.81056 1.57038C1.81056 1.45992 1.9001 1.37038 2.01056 1.37038L6.79617 1.37038C6.90663 1.37038 6.99617 1.45992 6.99617 1.57038L6.99617 2.30775C6.99617 2.41821 6.90663 2.50775 6.79617 2.50775L2.01056 2.50775C1.9001 2.50775 1.81056 2.41821 1.81056 2.30775L1.81056 1.57038Z" fill="#aeb9c0" fill-rule="nonzero" opacity="1" stroke="none"/>
<path d="M2.13466 1.9214C2.13466 1.81094 2.2242 1.7214 2.33466 1.7214L3.23521 1.7214C3.34567 1.7214 3.43521 1.81094 3.43521 1.9214L3.43521 1.95646C3.43521 2.06692 3.34567 2.15646 3.23521 2.15646L2.33466 2.15646C2.2242 2.15646 2.13466 2.06692 2.13466 1.95646L2.13466 1.9214Z" fill="#728898" fill-rule="nonzero" opacity="1" stroke="none"/>
<path d="M3.68549 1.91909C3.68549 1.80863 3.77503 1.71909 3.88549 1.71909L3.92343 1.71909C4.03389 1.71909 4.12343 1.80863 4.12343 1.91909L4.12343 1.95411C4.12343 2.06457 4.03389 2.15411 3.92343 2.15411L3.88549 2.15411C3.77503 2.15411 3.68549 2.06457 3.68549 1.95411L3.68549 1.91909Z" fill="#728898" fill-rule="nonzero" opacity="1" stroke="none"/>
</g>
<g opacity="1">
<path d="M1.81144 3.30508C1.81144 3.19462 1.90098 3.10508 2.01144 3.10508L6.79706 3.10508C6.90752 3.10508 6.99706 3.19462 6.99706 3.30508L6.99706 4.04244C6.99706 4.1529 6.90752 4.24244 6.79706 4.24244L2.01144 4.24244C1.90098 4.24244 1.81144 4.1529 1.81144 4.04244L1.81144 3.30508Z" fill="#aeb9c0" fill-rule="nonzero" opacity="1" stroke="none"/>
<path d="M2.13125 3.67618C2.13125 3.56572 2.22079 3.47618 2.33125 3.47618L3.2318 3.47618C3.34226 3.47618 3.4318 3.56572 3.4318 3.67618L3.4318 3.71124C3.4318 3.8217 3.34226 3.91124 3.2318 3.91124L2.33125 3.91124C2.22079 3.91124 2.13125 3.8217 2.13125 3.71124L2.13125 3.67618Z" fill="#728898" fill-rule="nonzero" opacity="1" stroke="none"/>
<path d="M3.68743 3.68289C3.68743 3.57243 3.77697 3.48289 3.88743 3.48289L3.92536 3.48289C4.03582 3.48289 4.12536 3.57243 4.12536 3.68289L4.12536 3.71795C4.12536 3.82841 4.03582 3.91795 3.92536 3.91795L3.88743 3.91795C3.77697 3.91795 3.68743 3.82841 3.68743 3.71795L3.68743 3.68289Z" fill="#728898" fill-rule="nonzero" opacity="1" stroke="none"/>
</g>
<g opacity="1">
<path d="M1.81201 5.04968C1.81201 4.93922 1.90155 4.84968 2.01201 4.84968L6.79764 4.84968C6.9081 4.84968 6.99764 4.93922 6.99764 5.04968L6.99764 5.78705C6.99764 5.89751 6.9081 5.98705 6.79764 5.98705L2.01201 5.98705C1.90155 5.98705 1.81201 5.89751 1.81201 5.78705L1.81201 5.04968Z" fill="#aeb9c0" fill-rule="nonzero" opacity="1" stroke="none"/>
<path d="M2.13913 5.38891C2.13913 5.27845 2.22867 5.18891 2.33913 5.18891L3.23968 5.18891C3.35014 5.18891 3.43968 5.27845 3.43968 5.38891L3.43968 5.42392C3.43968 5.53438 3.35014 5.62392 3.23968 5.62392L2.33913 5.62392C2.22867 5.62392 2.13913 5.53438 2.13913 5.42392L2.13913 5.38891Z" fill="#728898" fill-rule="nonzero" opacity="1" stroke="none"/>
<path d="M3.68921 5.40138C3.68921 5.29092 3.77875 5.20138 3.88921 5.20138L3.92715 5.20138C4.03761 5.20138 4.12715 5.29092 4.12715 5.40138L4.12715 5.43639C4.12715 5.54685 4.03761 5.63639 3.92715 5.63639L3.88921 5.63639C3.77875 5.63639 3.68921 5.54685 3.68921 5.43639L3.68921 5.40138Z" fill="#728898" fill-rule="nonzero" opacity="1" stroke="none"/>
</g>
<g opacity="1">
<path d="M1.81056 6.77269C1.81056 6.66223 1.9001 6.57269 2.01056 6.57269L6.79617 6.57269C6.90663 6.57269 6.99617 6.66223 6.99617 6.77269L6.99617 7.51005C6.99617 7.62051 6.90663 7.71005 6.79617 7.71005L2.01056 7.71005C1.9001 7.71005 1.81056 7.62051 1.81056 7.51005L1.81056 6.77269Z" fill="#aeb9c0" fill-rule="nonzero" opacity="1" stroke="none"/>
<path d="M2.13968 7.11652C2.13968 7.00606 2.22922 6.91652 2.33968 6.91652L3.24023 6.91652C3.35069 6.91652 3.44023 7.00606 3.44023 7.11652L3.44023 7.15159C3.44023 7.26205 3.35069 7.35159 3.24023 7.35159L2.33968 7.35159C2.22922 7.35159 2.13968 7.26205 2.13968 7.15159L2.13968 7.11652Z" fill="#728898" fill-rule="nonzero" opacity="1" stroke="none"/>
<path d="M3.68752 7.12297C3.68752 7.01251 3.77706 6.92297 3.88752 6.92297L3.92545 6.92297C4.03591 6.92297 4.12545 7.01251 4.12545 7.12297L4.12545 7.15804C4.12545 7.2685 4.03591 7.35804 3.92545 7.35804L3.88752 7.35804C3.77706 7.35804 3.68752 7.2685 3.68752 7.15804L3.68752 7.12297Z" fill="#728898" fill-rule="nonzero" opacity="1" stroke="none"/>
</g>
</g>
<path d="M10.7116 2.64866C10.7116 2.5382 10.8011 2.44866 10.9116 2.44866L11.9162 2.44866C12.0267 2.44866 12.1162 2.5382 12.1162 2.64866L12.1162 8.14538C12.1162 8.25584 12.0267 8.34538 11.9162 8.34538L10.9116 8.34538C10.8011 8.34538 10.7116 8.25584 10.7116 8.14538L10.7116 2.64866Z" fill="#da1e7a" fill-rule="nonzero" opacity="1" stroke="none"/>
<path d="M8.50904 2.66043C8.50904 2.54997 8.59858 2.46043 8.70904 2.46043L9.71367 2.46043C9.82413 2.46043 9.91367 2.54997 9.91367 2.66043L9.91367 8.15715C9.91367 8.26761 9.82413 8.35715 9.71367 8.35715L8.70904 8.35715C8.59858 8.35715 8.50904 8.26761 8.50904 8.15715L8.50904 2.66043Z" fill="#da1e7a" fill-rule="nonzero" opacity="1" stroke="none"/>
<path d="M13.1086 4.9375C12.9968 4.9375 12.9062 5.02814 12.9062 5.13994L12.9062 8.17256C12.9062 8.28436 12.9968 8.375 13.1086 8.375L14.9851 8.375C15.0969 8.375 15.1875 8.28436 15.1875 8.17256L15.1875 5.13994C15.1875 5.02814 15.0969 4.9375 14.9851 4.9375L14.5625 4.9375C14.5653 5.17587 14.4325 5.39495 14.1875 5.4375C13.9154 5.48475 13.641 5.30332 13.5938 5.03125C13.5936 5.03034 13.5989 4.97741 13.5938 4.9375L13.1086 4.9375Z" fill="#d46199" fill-rule="nonzero" opacity="1" stroke="none"/>
<path d="M14.0542 5.19447C13.9882 5.19447 13.9402 5.18047 13.9102 5.15247C13.8802 5.12447 13.8652 5.07747 13.8652 5.01147C13.8652 4.95747 13.8737 4.88347 13.8907 4.78947C13.9077 4.69547 13.9322 4.59347 13.9642 4.48347C13.9222 4.28147 13.8762 4.11547 13.8262 3.98547C13.7342 3.73547 13.6242 3.61047 13.4962 3.61047C13.4742 3.61047 13.4492 3.61447 13.4212 3.62247C13.4012 3.62647 13.3807 3.61197 13.3597 3.57897C13.3387 3.54597 13.3282 3.50847 13.3282 3.46647C13.3282 3.40847 13.3482 3.35847 13.3882 3.31647C13.4282 3.27447 13.4812 3.25347 13.5472 3.25347C13.6812 3.25347 13.7952 3.32197 13.8892 3.45897C13.9832 3.59597 14.0542 3.82447 14.1022 4.14447C14.2002 3.90247 14.3117 3.69347 14.4367 3.51747C14.5617 3.34147 14.6972 3.25347 14.8432 3.25347C14.8972 3.25347 14.9392 3.26647 14.9692 3.29247C14.9992 3.31847 15.0142 3.35447 15.0142 3.40047C15.0142 3.45047 14.9992 3.50197 14.9692 3.55497C14.9392 3.60797 14.9072 3.63447 14.8732 3.63447C14.8512 3.63447 14.8332 3.63147 14.8192 3.62547C14.7992 3.61547 14.7762 3.61047 14.7502 3.61047C14.6822 3.61047 14.6107 3.65597 14.5357 3.74697C14.4607 3.83797 14.3872 3.97247 14.3152 4.15047C14.2392 4.34447 14.2012 4.53247 14.2012 4.71447C14.2012 4.81447 14.2272 4.89347 14.2792 4.95147C14.2992 4.98147 14.3092 5.00947 14.3092 5.03547C14.3092 5.08147 14.2852 5.11947 14.2372 5.14947C14.1892 5.17947 14.1282 5.19447 14.0542 5.19447Z" fill="#00b41e" fill-rule="nonzero" opacity="1" stroke="none"/>
</g>
</svg>
