<?xml version="1.0" encoding="UTF-8" standalone="no"?>
<!DOCTYPE svg PUBLIC "-//W3C//DTD SVG 1.1//EN" "http://www.w3.org/Graphics/SVG/1.1/DTD/svg11.dtd">
<!-- Created with Vectornator (http://vectornator.io/) -->
<svg height="12.0pt" stroke-miterlimit="10" style="fill-rule:nonzero;clip-rule:evenodd;stroke-linecap:round;stroke-linejoin:round;" version="1.1" viewBox="0 0 12 12" width="12.0pt" xml:space="preserve" xmlns="http://www.w3.org/2000/svg" xmlns:xlink="http://www.w3.org/1999/xlink">
<defs/>
<g id="无标题">
<path d="M1.94229 6.17649C2.15579 6.36179 2.25851 6.60953 2.25046 6.91971L2.22629 8.36385C2.22226 8.75862 2.30685 9.10304 2.48007 9.39711C2.65732 9.6952 2.90707 9.9228 3.22933 10.0799C3.55563 10.241 3.93429 10.3216 4.36532 10.3216L4.71774 10.3216C4.77819 10.0237 4.90435 9.74999 5.0803 9.51586L5.0803 9.51191L4.37136 9.51191C3.98867 9.51191 3.68453 9.40516 3.45895 9.19166C3.23739 8.98219 3.13064 8.70021 3.1387 8.34572L3.16287 6.91367C3.17092 6.53903 3.06015 6.2208 2.83053 5.95896C2.60092 5.69309 2.29074 5.5239 1.9 5.45139C2.29074 5.4232 2.60092 5.28019 2.83053 5.02238C3.06015 4.76054 3.17092 4.42418 3.16287 4.01329L3.1387 2.75041C3.13467 2.35564 3.2535 2.04344 3.4952 1.81383C3.74093 1.58019 4.07326 1.46337 4.49221 1.46337L5.0803 1.46337L5.0803 0.65368L4.48616 0.65368C4.02291 0.65368 3.62008 0.738274 3.27767 0.907463C2.93527 1.07665 2.67142 1.31835 2.48611 1.63256C2.30484 1.94676 2.21823 2.31334 2.22629 2.73228L2.25046 4.00725C2.25851 4.31743 2.15579 4.56517 1.94229 4.75047C1.72879 4.93577 1.44077 5.02842 1.07822 5.02842L0.649168 5.02842L0.649168 5.89854L1.07822 5.89854C1.44077 5.89854 1.72879 5.99119 1.94229 6.17649Z" fill="#834df0" fill-rule="nonzero" opacity="1" stroke="none"/>
<path d="M9.61907 5.00919C9.42232 5.13792 9.24951 5.30013 9.10868 5.48764L8.90815 5.48764C8.95987 5.47365 9.01313 5.46157 9.06791 5.45139C8.67717 5.4232 8.36699 5.28019 8.13738 5.02238C7.90776 4.76054 7.79698 4.42418 7.80504 4.01329L7.82921 2.75041C7.83324 2.35564 7.71239 2.04344 7.46666 1.81383C7.22497 1.58019 6.89469 1.46337 6.47574 1.46337L5.88596 1.46337L5.88596 0.65368L6.48178 0.65368C6.94504 0.65368 7.34783 0.738274 7.69023 0.907463C8.03264 1.07665 8.29448 1.31835 8.47575 1.63256C8.66105 1.94676 8.74968 2.31334 8.74162 2.73228L8.71745 4.00725C8.70939 4.31743 8.81212 4.56517 9.02562 4.75047C9.18296 4.88703 9.38083 4.97327 9.61907 5.00919Z" fill="#834df0" fill-rule="nonzero" opacity="1" stroke="none"/>
<path d="M11.3508 7.43452L5.97211 7.43452M10.8619 10.3683L5.48313 10.3683" fill="none" opacity="1" stroke="#6c707e" stroke-linecap="round" stroke-linejoin="miter" stroke-width="1"/>
<path d="M7.43903 6.45656L6.46108 11.3463M10.3729 6.45656L9.39493 11.3463" fill="none" opacity="1" stroke="#6c707e" stroke-linecap="round" stroke-linejoin="round" stroke-width="1"/>
</g>
</svg>
