<?xml version="1.0" encoding="UTF-8" standalone="no"?>
<!DOCTYPE svg PUBLIC "-//W3C//DTD SVG 1.1//EN" "http://www.w3.org/Graphics/SVG/1.1/DTD/svg11.dtd">
<!-- Created with Vectornator (http://vectornator.io/) -->
<svg height="12.0pt" stroke-miterlimit="10" style="fill-rule:nonzero;clip-rule:evenodd;stroke-linecap:round;stroke-linejoin:round;" version="1.1" viewBox="0 0 12 12" width="12.0pt" xml:space="preserve" xmlns="http://www.w3.org/2000/svg" xmlns:xlink="http://www.w3.org/1999/xlink">
<defs/>
<g id="无标题">
<path d="M1.94292 6.17195C2.15639 6.35722 2.2591 6.60492 2.25104 6.91506L2.22687 8.35897C2.22285 8.75368 2.30743 9.09805 2.48062 9.39207C2.65784 9.69011 2.90755 9.91768 3.22977 10.0748C3.55601 10.2359 3.93461 10.3164 4.36557 10.3164L4.71794 10.3164C4.77838 10.0186 4.90452 9.74489 5.08044 9.5108L5.08044 9.50686L4.37161 9.50686C3.98898 9.50686 3.68489 9.40012 3.45934 9.18666C3.23782 8.97722 3.13109 8.69528 3.13914 8.34084L3.16331 6.90901C3.17136 6.53444 3.0606 6.21625 2.83103 5.95446C2.60145 5.68863 2.29132 5.51947 1.90063 5.44697C2.29132 5.41877 2.60145 5.27579 2.83103 5.01802C3.0606 4.75622 3.17136 4.41991 3.16331 4.00909L3.13914 2.7464C3.13512 2.35169 3.25393 2.03955 3.49559 1.80997C3.74128 1.57637 4.07356 1.45956 4.49244 1.45956L5.08044 1.45956L5.08044 0.65L4.4864 0.65C4.02322 0.65 3.62045 0.734581 3.2781 0.903743C2.93575 1.07291 2.67193 1.31457 2.48666 1.62872C2.30541 1.94288 2.21882 2.3094 2.22687 2.72828L2.25104 4.00305C2.2591 4.31318 2.15639 4.56088 1.94292 4.74615C1.72946 4.93143 1.44148 5.02406 1.07899 5.02406L0.65 5.02406L0.65 5.89404L1.07899 5.89404C1.44148 5.89404 1.72946 5.98668 1.94292 6.17195Z" fill="#a571e6" fill-rule="nonzero" opacity="1" stroke="none"/>
<path d="M9.6185 5.00483C9.42179 5.13354 9.249 5.29573 9.1082 5.48321L8.9077 5.48321C8.95941 5.46923 9.01266 5.45714 9.06744 5.44697C8.67675 5.41877 8.36662 5.27579 8.13704 5.01802C7.90747 4.75622 7.79671 4.41991 7.80476 4.00909L7.82893 2.7464C7.83295 2.35169 7.71212 2.03955 7.46644 1.80997C7.22478 1.57637 6.89455 1.45956 6.47567 1.45956L5.88598 1.45956L5.88598 0.65L6.48171 0.65C6.94489 0.65 7.34762 0.734581 7.68997 0.903743C8.03232 1.07291 8.29412 1.31457 8.47537 1.62872C8.66064 1.94288 8.74925 2.3094 8.74119 2.72828L8.71703 4.00305C8.70897 4.31318 8.81168 4.56088 9.02515 4.74615C9.18247 4.88269 9.38031 4.96892 9.6185 5.00483Z" fill="#a571e6" fill-rule="nonzero" opacity="1" stroke="none"/>
<path d="M11.35 7.42978L5.97211 7.42978M10.8611 10.3631L5.48321 10.3631" fill="none" opacity="1" stroke="#ced0d6" stroke-linecap="round" stroke-linejoin="miter" stroke-width="1"/>
<path d="M7.43881 6.45198L6.46101 11.341M10.3722 6.45198L9.3944 11.341" fill="none" opacity="1" stroke="#ced0d6" stroke-linecap="round" stroke-linejoin="round" stroke-width="1"/>
</g>
</svg>
