<?xml version="1.0" encoding="UTF-8" standalone="no"?>
<!DOCTYPE svg PUBLIC "-//W3C//DTD SVG 1.1//EN" "http://www.w3.org/Graphics/SVG/1.1/DTD/svg11.dtd">
<!-- Created with Vectornator (http://vectornator.io/) -->
<svg height="12.0pt" stroke-miterlimit="10" style="fill-rule:nonzero;clip-rule:evenodd;stroke-linecap:round;stroke-linejoin:round;" version="1.1" viewBox="0 0 12 12" width="12.0pt" xml:space="preserve" xmlns="http://www.w3.org/2000/svg" xmlns:xlink="http://www.w3.org/1999/xlink">
<defs/>
<g id="xql">
<g opacity="1">
<path d="M0.5 11.3966C0.5 11.4778 0.565838 11.5436 0.647059 11.5436L11.3824 11.5436C11.4636 11.5436 11.5294 11.4778 11.5294 11.3966L11.5294 6.54365C11.5294 6.46243 11.4636 6.39659 11.3824 6.39659L0.647059 6.39659C0.565838 6.39659 0.5 6.46243 0.5 6.54365L0.5 11.3966Z" fill="#f43db4" fill-opacity="0.7" fill-rule="evenodd" opacity="1" stroke="none"/>
<path d="M7.82081 10.3117C7.8839 10.3653 7.8903 10.4604 7.835 10.522L7.63309 10.7469C7.57897 10.8072 7.48625 10.8124 7.42574 10.7584L7.10897 10.4755C6.80964 10.6886 6.43927 10.8104 6.02831 10.8104C4.9375 10.8104 4.17647 9.9834 4.17647 8.98391C4.17647 7.97428 4.94765 7.13717 6.03846 7.13717C7.12927 7.13717 7.8903 7.96413 7.8903 8.96362C7.8903 9.37965 7.75839 9.75509 7.53008 10.0646L7.82081 10.3117ZM6.03815 10.1585C6.25726 10.1585 6.44779 10.1059 6.6145 10.0104L6.151 9.61082C6.08891 9.55729 6.08257 9.46332 6.1369 9.402L6.35222 9.15869C6.40664 9.09722 6.50088 9.09222 6.56151 9.14759L7.0371 9.58193C7.14192 9.40038 7.16228 9.22215 7.16228 8.98332L7.16228 8.97376C7.16228 8.32406 6.69072 7.78906 6.02862 7.78906C5.36652 7.78906 4.91177 8.3145 4.91177 8.9642L4.91177 8.97376C4.91177 9.62347 5.37605 10.1585 6.03815 10.1585Z" fill="#231f20" fill-opacity="0.7" fill-rule="evenodd" opacity="1" stroke="none"/>
<path d="M8.58824 7.27895C8.58824 7.19769 8.65405 7.13189 8.7353 7.13189L9.17648 7.13189C9.25773 7.13189 9.32353 7.19769 9.32353 7.27895L9.32353 9.92597C9.32353 10.0072 9.38934 10.073 9.47059 10.073L11.0147 10.073C11.096 10.073 11.1618 10.1388 11.1618 10.2201L11.1618 10.6613C11.1618 10.7425 11.096 10.8083 11.0147 10.8083L8.7353 10.8083C8.65405 10.8083 8.58824 10.7425 8.58824 10.6613L8.58824 7.27895Z" fill="#231f20" fill-opacity="0.7" fill-rule="evenodd" opacity="1" stroke="none"/>
<path d="M4.00998 10.6366C4.07147 10.7345 4.00107 10.8618 3.88544 10.8618L3.29781 10.8618C3.24449 10.8618 3.19535 10.833 3.16938 10.7863L2.63264 9.82406C2.57732 9.72487 2.43521 9.72318 2.37753 9.82097L1.80651 10.7894C1.78007 10.8343 1.73189 10.8618 1.67983 10.8618L1.13082 10.8618C1.01502 10.8618 0.944655 10.7341 1.00646 10.6363L2.00612 9.05237C2.03624 9.00465 2.03639 8.94391 2.00653 8.89604L1.06221 7.38233C1.0011 7.28431 1.07153 7.1574 1.18698 7.1574L1.75975 7.1574C1.81342 7.1574 1.86282 7.18667 1.88866 7.23365L2.38053 8.1295C2.43602 8.23053 2.58093 8.23134 2.63755 8.1309L3.14413 7.23225C3.17019 7.186 3.21916 7.1574 3.27224 7.1574L3.81358 7.1574C3.92953 7.1574 3.99987 7.28534 3.93777 7.3832L2.99727 8.86582C2.9669 8.91369 2.96676 8.97479 2.99691 9.02281L4.00998 10.6366Z" fill="#231f20" fill-opacity="0.7" fill-rule="nonzero" opacity="1" stroke="none"/>
</g>
<g opacity="1">
<path d="M0.532066 0.616814C0.532066 0.535593 0.597904 0.469755 0.679125 0.469755L5.33197 0.469755C5.41319 0.469755 5.47902 0.535593 5.47902 0.616814L5.47902 5.77807C5.47902 5.85929 5.41319 5.92513 5.33197 5.92513L0.679125 5.92513C0.597904 5.92513 0.532066 5.85929 0.532066 5.77807L0.532066 0.616814Z" fill="#728898" fill-rule="nonzero" opacity="1" stroke="none"/>
<g opacity="1">
<path d="M1.096 0.933634C1.096 0.85241 1.16184 0.786571 1.24306 0.786571L4.76189 0.786571C4.84311 0.786571 4.90895 0.85241 4.90895 0.933634L4.90895 1.47582C4.90895 1.55704 4.84311 1.62288 4.76189 1.62288L1.24306 1.62288C1.16184 1.62288 1.096 1.55704 1.096 1.47582L1.096 0.933634Z" fill="#aeb9c0" fill-rule="nonzero" opacity="1" stroke="none"/>
<path d="M1.33431 1.19174C1.33431 1.11052 1.40015 1.04468 1.48137 1.04468L2.14354 1.04468C2.22476 1.04468 2.2906 1.11052 2.2906 1.19174L2.2906 1.21752C2.2906 1.29874 2.22476 1.36458 2.14354 1.36458L1.48137 1.36458C1.40015 1.36458 1.33431 1.29874 1.33431 1.21752L1.33431 1.19174Z" fill="#728898" fill-rule="nonzero" opacity="1" stroke="none"/>
<path d="M2.47463 1.19004C2.47463 1.10882 2.54046 1.04298 2.62168 1.04298L2.64958 1.04298C2.7308 1.04298 2.79664 1.10882 2.79664 1.19004L2.79664 1.21579C2.79664 1.29701 2.7308 1.36285 2.64958 1.36285L2.62168 1.36285C2.54046 1.36285 2.47463 1.29701 2.47463 1.21579L2.47463 1.19004Z" fill="#728898" fill-rule="nonzero" opacity="1" stroke="none"/>
</g>
<g opacity="1">
<path d="M1.09665 2.20915C1.09665 2.12793 1.16249 2.06209 1.24371 2.06209L4.76255 2.06209C4.84377 2.06209 4.90961 2.12793 4.90961 2.20915L4.90961 2.75133C4.90961 2.83255 4.84377 2.89838 4.76255 2.89838L1.24371 2.89838C1.16249 2.89838 1.09665 2.83255 1.09665 2.75133L1.09665 2.20915Z" fill="#aeb9c0" fill-rule="nonzero" opacity="1" stroke="none"/>
<path d="M1.3318 2.48202C1.3318 2.4008 1.39764 2.33496 1.47886 2.33496L2.14103 2.33496C2.22225 2.33496 2.28809 2.4008 2.28809 2.48202L2.28809 2.5078C2.28809 2.58902 2.22225 2.65486 2.14103 2.65486L1.47886 2.65486C1.39764 2.65486 1.3318 2.58902 1.3318 2.5078L1.3318 2.48202Z" fill="#728898" fill-rule="nonzero" opacity="1" stroke="none"/>
<path d="M2.47605 2.48695C2.47605 2.40573 2.54189 2.33989 2.62311 2.33989L2.651 2.33989C2.73222 2.33989 2.79806 2.40573 2.79806 2.48695L2.79806 2.51273C2.79806 2.59395 2.73222 2.65979 2.651 2.65979L2.62311 2.65979C2.54189 2.65979 2.47605 2.59395 2.47605 2.51273L2.47605 2.48695Z" fill="#728898" fill-rule="nonzero" opacity="1" stroke="none"/>
</g>
<g opacity="1">
<path d="M1.09707 3.49194C1.09707 3.41072 1.1629 3.34489 1.24413 3.34489L4.76297 3.34489C4.84419 3.34489 4.91003 3.41072 4.91003 3.49194L4.91003 4.03413C4.91003 4.11535 4.84419 4.18119 4.76297 4.18119L1.24413 4.18119C1.1629 4.18119 1.09707 4.11535 1.09707 4.03413L1.09707 3.49194Z" fill="#aeb9c0" fill-rule="nonzero" opacity="1" stroke="none"/>
<path d="M1.3376 3.74138C1.3376 3.66016 1.40343 3.59432 1.48465 3.59432L2.14682 3.59432C2.22805 3.59432 2.29388 3.66016 2.29388 3.74138L2.29388 3.76712C2.29388 3.84834 2.22805 3.91418 2.14682 3.91418L1.48465 3.91418C1.40343 3.91418 1.3376 3.84834 1.3376 3.76712L1.3376 3.74138Z" fill="#728898" fill-rule="nonzero" opacity="1" stroke="none"/>
<path d="M2.47736 3.75055C2.47736 3.66933 2.5432 3.60349 2.62442 3.60349L2.65232 3.60349C2.73354 3.60349 2.79938 3.66933 2.79938 3.75055L2.79938 3.77629C2.79938 3.85751 2.73354 3.92335 2.65232 3.92335L2.62442 3.92335C2.5432 3.92335 2.47736 3.85751 2.47736 3.77629L2.47736 3.75055Z" fill="#728898" fill-rule="nonzero" opacity="1" stroke="none"/>
</g>
<g opacity="1">
<path d="M1.096 4.75886C1.096 4.67764 1.16184 4.61181 1.24306 4.61181L4.76189 4.61181C4.84311 4.61181 4.90895 4.67764 4.90895 4.75886L4.90895 5.30104C4.90895 5.38226 4.84311 5.4481 4.76189 5.4481L1.24306 5.4481C1.16184 5.4481 1.096 5.38226 1.096 5.30104L1.096 4.75886Z" fill="#aeb9c0" fill-rule="nonzero" opacity="1" stroke="none"/>
<path d="M1.338 5.01168C1.338 4.93046 1.40384 4.86462 1.48506 4.86462L2.14723 4.86462C2.22845 4.86462 2.29429 4.93046 2.29429 5.01168L2.29429 5.03747C2.29429 5.11869 2.22845 5.18453 2.14723 5.18453L1.48506 5.18453C1.40384 5.18453 1.338 5.11869 1.338 5.03747L1.338 5.01168Z" fill="#728898" fill-rule="nonzero" opacity="1" stroke="none"/>
<path d="M2.47612 5.01642C2.47612 4.9352 2.54196 4.86936 2.62318 4.86936L2.65107 4.86936C2.73229 4.86936 2.79813 4.9352 2.79813 5.01642L2.79813 5.04221C2.79813 5.12343 2.73229 5.18927 2.65107 5.18927L2.62318 5.18927C2.54196 5.18927 2.47612 5.12343 2.47612 5.04221L2.47612 5.01642Z" fill="#728898" fill-rule="nonzero" opacity="1" stroke="none"/>
</g>
</g>
<path d="M7.64089 1.72649C7.64089 1.64527 7.7067 1.57943 7.78795 1.57943L8.52662 1.57943C8.60787 1.57943 8.67368 1.64527 8.67368 1.72649L8.67368 5.7682C8.67368 5.84941 8.60787 5.91525 8.52662 5.91525L7.78795 5.91525C7.7067 5.91525 7.64089 5.84941 7.64089 5.7682L7.64089 1.72649Z" fill="#c5c5c5" fill-rule="nonzero" opacity="1" stroke="none"/>
<path d="M6.02136 1.73514C6.02136 1.65392 6.08719 1.58808 6.16841 1.58808L6.90711 1.58808C6.98833 1.58808 7.05417 1.65392 7.05417 1.73514L7.05417 5.77685C7.05417 5.85807 6.98833 5.92391 6.90711 5.92391L6.16841 5.92391C6.08719 5.92391 6.02136 5.85807 6.02136 5.77685L6.02136 1.73514Z" fill="#c5c5c5" fill-rule="nonzero" opacity="1" stroke="none"/>
<path d="M9.40339 3.40946C9.32118 3.40946 9.25456 3.47611 9.25456 3.55831L9.25456 5.78818C9.25456 5.87039 9.32118 5.93703 9.40339 5.93703L10.7832 5.93703C10.8654 5.93703 10.932 5.87039 10.932 5.78818L10.932 3.55831C10.932 3.47611 10.8654 3.40946 10.7832 3.40946L10.4724 3.40946C10.4745 3.58473 10.3768 3.74582 10.1967 3.77711C9.99662 3.81185 9.79486 3.67844 9.76015 3.47839C9.76 3.47772 9.7639 3.4388 9.76015 3.40946L9.40339 3.40946Z" fill="#a8a8a8" fill-rule="nonzero" opacity="1" stroke="none"/>
<path d="M10.0987 3.59841C10.0502 3.59841 10.0149 3.58811 9.9928 3.56753C9.97074 3.54694 9.95971 3.51238 9.95971 3.46385C9.95971 3.42414 9.96596 3.36973 9.97846 3.30061C9.99096 3.2315 10.009 3.1565 10.0325 3.07561C10.0016 2.92708 9.9678 2.80502 9.93103 2.70944C9.86339 2.52561 9.7825 2.4337 9.68839 2.4337C9.67221 2.4337 9.65383 2.43664 9.63324 2.44252C9.61853 2.44547 9.60346 2.4348 9.58802 2.41054C9.57258 2.38627 9.56486 2.3587 9.56486 2.32782C9.56486 2.28517 9.57956 2.24841 9.60898 2.21752C9.63839 2.18664 9.67736 2.1712 9.72589 2.1712C9.82442 2.1712 9.90824 2.22157 9.97736 2.3223C10.0465 2.42304 10.0987 2.59105 10.134 2.82635C10.206 2.64841 10.288 2.49473 10.3799 2.36532C10.4718 2.23591 10.5715 2.1712 10.6788 2.1712C10.7185 2.1712 10.7494 2.18076 10.7715 2.19988C10.7935 2.21899 10.8046 2.24547 10.8046 2.27929C10.8046 2.31605 10.7935 2.35392 10.7715 2.39289C10.7494 2.43186 10.7259 2.45135 10.7009 2.45135C10.6847 2.45135 10.6715 2.44914 10.6612 2.44473C10.6465 2.43738 10.6296 2.4337 10.6104 2.4337C10.5604 2.4337 10.5079 2.46716 10.4527 2.53407C10.3976 2.60098 10.3435 2.69988 10.2906 2.83076C10.2347 2.97341 10.2068 3.11164 10.2068 3.24547C10.2068 3.319 10.2259 3.37708 10.2641 3.41973C10.2788 3.44179 10.2862 3.46238 10.2862 3.4815C10.2862 3.51532 10.2685 3.54326 10.2332 3.56532C10.1979 3.58738 10.1531 3.59841 10.0987 3.59841Z" fill="#00b41e" fill-rule="nonzero" opacity="1" stroke="none"/>
</g>
</svg>
