<?xml version="1.0" encoding="UTF-8" standalone="no"?>
<!DOCTYPE svg PUBLIC "-//W3C//DTD SVG 1.1//EN" "http://www.w3.org/Graphics/SVG/1.1/DTD/svg11.dtd">
<!-- Created with Vectornator (http://vectornator.io/) -->
<svg height="12.0pt" stroke-miterlimit="10" style="fill-rule:nonzero;clip-rule:evenodd;stroke-linecap:round;stroke-linejoin:round;" version="1.1" viewBox="0 0 12 12" width="12.0pt" xml:space="preserve" xmlns="http://www.w3.org/2000/svg" xmlns:xlink="http://www.w3.org/1999/xlink">
<defs/>
<g id="xql">
<g opacity="1">
<path d="M0.5 11.4997L11.53 11.4997L11.53 6.35234L0.5 6.35234L0.5 11.4997Z" fill="#f43db4" fill-opacity="0.7" fill-rule="evenodd" opacity="1" stroke="none"/>
<path d="M7.93635 10.3656L7.53552 10.8121L7.10932 10.4316C6.80997 10.6447 6.43958 10.7664 6.0286 10.7664C4.93774 10.7664 4.17667 9.93939 4.17667 8.93985C4.17667 7.93017 4.94788 7.09297 6.03875 7.09297C7.12962 7.09297 7.89069 7.92002 7.89069 8.91956C7.89069 9.33561 7.75877 9.71107 7.53045 10.0206L7.93635 10.3656ZM6.03844 10.1145C6.25756 10.1145 6.4481 10.0619 6.61483 9.96638L6.03844 9.46952L6.45153 9.0028L7.03744 9.5379C7.14227 9.35635 7.16263 9.1781 7.16263 8.93927L7.16263 8.92971C7.16263 8.27997 6.69104 7.74494 6.02891 7.74494C5.36678 7.74494 4.912 8.27041 4.912 8.92015L4.912 8.92971C4.912 9.57945 5.37631 10.1145 6.03844 10.1145Z" fill="#231f20" fill-opacity="0.7" fill-rule="evenodd" opacity="1" stroke="none"/>
<path d="M8.58867 7.08767L9.324 7.08767L9.324 10.029L11.1623 10.029L11.1623 10.7644L8.58867 10.7644L8.58867 7.08767Z" fill="#231f20" fill-opacity="0.7" fill-rule="evenodd" opacity="1" stroke="none"/>
<path d="M4.15158 10.8178L3.21159 10.8178L2.50786 9.55614L1.76391 10.8178L0.864122 10.8178L2.05545 8.9303L0.921934 7.11319L1.84684 7.11319L2.50786 8.3171L3.18646 7.11319L4.08121 7.11319L2.94769 8.90015L4.15158 10.8178Z" fill="#231f20" fill-opacity="0.7" fill-rule="nonzero" opacity="1" stroke="none"/>
</g>
<path d="M8.46204 5.61701C8.46204 5.61701 9.71505 5.61837 9.89102 4.39238C9.97477 3.05177 8.67977 2.78755 8.67977 2.78755C8.67977 2.78755 8.82706 0.802955 7.00887 0.576644C5.45057 0.417523 4.97638 1.86573 4.97638 1.86573C4.97638 1.86573 4.50696 1.41448 3.87025 1.78311C3.30027 2.13495 3.40105 2.77915 3.40105 2.77915C3.40105 2.77915 2.13512 3.02521 2.13512 4.31543C2.16349 5.60407 3.51001 5.61701 3.51001 5.61701" fill="#549acb" fill-opacity="0.8" fill-rule="nonzero" opacity="1" stroke="none"/>
<path d="M7.48164 4.21088C7.48164 3.65515 7.93598 3.20464 8.49638 3.20464C9.05685 3.20464 9.51122 3.65515 9.51122 4.21088C9.51122 4.76662 9.05685 5.21714 8.49638 5.21714C7.93598 5.21714 7.48164 4.76662 7.48164 4.21088Z" fill="#00f452" fill-rule="nonzero" opacity="1" stroke="#00aa65" stroke-linecap="butt" stroke-linejoin="miter" stroke-width="0.122679"/>
</g>
</svg>
