<?xml version="1.0" encoding="UTF-8" standalone="no"?>
<!DOCTYPE svg PUBLIC "-//W3C//DTD SVG 1.1//EN" "http://www.w3.org/Graphics/SVG/1.1/DTD/svg11.dtd">
<!-- Created with Vectornator (http://vectornator.io/) -->
<svg height="12.0pt" stroke-miterlimit="10" style="fill-rule:nonzero;clip-rule:evenodd;stroke-linecap:round;stroke-linejoin:round;" version="1.1" viewBox="0 0 12 12" width="12.0pt" xml:space="preserve" xmlns="http://www.w3.org/2000/svg" xmlns:xlink="http://www.w3.org/1999/xlink">
<defs/>
<g id="xql">
<g opacity="1">
<path d="M0.5 11.53L11.53 11.53L11.53 6.38267L0.5 6.38267L0.5 11.53Z" fill="#f43db4" fill-opacity="0.7" fill-rule="evenodd" opacity="1" stroke="none"/>
<path d="M7.93635 10.3959L7.53552 10.8424L7.10932 10.4619C6.80997 10.675 6.43958 10.7967 6.0286 10.7967C4.93774 10.7967 4.17667 9.9697 4.17667 8.97016C4.17667 7.96047 4.94788 7.12329 6.03875 7.12329C7.12962 7.12329 7.89069 7.95032 7.89069 8.94986C7.89069 9.36591 7.75877 9.74138 7.53045 10.0509L7.93635 10.3959ZM6.03844 10.1448C6.25756 10.1448 6.4481 10.0922 6.61483 9.99668L6.03844 9.49982L6.45153 9.0331L7.03744 9.5682C7.14227 9.38665 7.16263 9.20841 7.16263 8.96957L7.16263 8.96001C7.16263 8.31027 6.69104 7.77524 6.02891 7.77524C5.36678 7.77524 4.912 8.30071 4.912 8.95045L4.912 8.96001C4.912 9.60975 5.37631 10.1448 6.03844 10.1448Z" fill="#231f20" fill-opacity="0.7" fill-rule="evenodd" opacity="1" stroke="none"/>
<path d="M8.58867 7.118L9.324 7.118L9.324 10.0593L11.1623 10.0593L11.1623 10.7947L8.58867 10.7947L8.58867 7.118Z" fill="#231f20" fill-opacity="0.7" fill-rule="evenodd" opacity="1" stroke="none"/>
<path d="M4.912 0.5L1.97067 3.44133L4.912 3.44133L4.912 0.5Z" fill="#9aa7b0" fill-opacity="0.8" fill-rule="evenodd" opacity="1" stroke="none"/>
<path d="M5.64733 0.5L5.64733 4.17667L1.97067 4.17667L1.97067 5.64733L9.324 5.64733L9.324 0.5L5.64733 0.5Z" fill="#9aa7b0" fill-opacity="0.8" fill-rule="evenodd" opacity="1" stroke="none"/>
<path d="M4.15158 10.8481L3.21159 10.8481L2.50786 9.58644L1.76391 10.8481L0.864122 10.8481L2.05545 8.9606L0.921934 7.14352L1.84684 7.14352L2.50786 8.3474L3.18646 7.14352L4.08121 7.14352L2.94769 8.93045L4.15158 10.8481Z" fill="#231f20" fill-opacity="0.7" fill-rule="nonzero" opacity="1" stroke="none"/>
</g>
<path d="M6.48612 2.3493C6.48612 1.79356 6.94047 1.34305 7.50089 1.34305C8.06136 1.34305 8.51572 1.79356 8.51572 2.3493C8.51572 2.90504 8.06136 3.35556 7.50089 3.35556C6.94047 3.35556 6.48612 2.90504 6.48612 2.3493Z" fill="#00f452" fill-rule="nonzero" opacity="1" stroke="#00aa65" stroke-linecap="butt" stroke-linejoin="miter" stroke-width="0.122679"/>
</g>
</svg>
