<?xml version="1.0" encoding="UTF-8" standalone="no"?>
<!DOCTYPE svg PUBLIC "-//W3C//DTD SVG 1.1//EN" "http://www.w3.org/Graphics/SVG/1.1/DTD/svg11.dtd">
<!-- Created with Vectornator (http://vectornator.io/) -->
<svg height="100%" stroke-miterlimit="10" style="fill-rule:nonzero;clip-rule:evenodd;stroke-linecap:round;stroke-linejoin:round;" version="1.1" viewBox="0 0 16 16" width="100%" xml:space="preserve" xmlns="http://www.w3.org/2000/svg" xmlns:xlink="http://www.w3.org/1999/xlink">
<defs/>
<g id="xql">
<g opacity="1">
<path d="M1 16L16 16L16 9L1 9L1 16Z" fill="#f43db4" fill-opacity="0.7" fill-rule="evenodd" opacity="1" stroke="none"/>
<path d="M11.1129 14.4577L10.5678 15.0649L9.9882 14.5474C9.5811 14.8372 9.0774 15.0028 8.5185 15.0028C7.035 15.0028 6 13.8781 6 12.5188C6 11.1457 7.0488 10.0072 8.5323 10.0072C10.0158 10.0072 11.0508 11.1319 11.0508 12.4912C11.0508 13.057 10.8714 13.5676 10.5609 13.9885L11.1129 14.4577ZM8.53188 14.1162C8.82987 14.1162 9.08899 14.0447 9.31572 13.9148L8.53188 13.2391L9.09365 12.6044L9.89045 13.3321C10.033 13.0852 10.0607 12.8428 10.0607 12.518L10.0607 12.505C10.0607 11.6214 9.41937 10.8938 8.51892 10.8938C7.61847 10.8938 7 11.6084 7 12.492L7 12.505C7 13.3886 7.63143 14.1162 8.53188 14.1162Z" fill="#231f20" fill-opacity="0.7" fill-rule="evenodd" opacity="1" stroke="none"/>
<path d="M12 10L13 10L13 14L15.5 14L15.5 15L12 15L12 10Z" fill="#231f20" fill-opacity="0.7" fill-rule="evenodd" opacity="1" stroke="none"/>
<path d="M5.96589 15.0727L4.68757 15.0727L3.73054 13.3569L2.71882 15.0727L1.49518 15.0727L3.1153 12.5058L1.5738 10.0347L2.83161 10.0347L3.73054 11.6719L4.65339 10.0347L5.87018 10.0347L4.32868 12.4648L5.96589 15.0727Z" fill="#231f20" fill-opacity="0.7" fill-rule="nonzero" opacity="1" stroke="none"/>
</g>
<g opacity="1">
<path d="M1.04361 0.93951L7.77147 0.93951L7.77147 8.35881L1.04361 8.35881L1.04361 0.93951Z" fill="#728898" fill-rule="nonzero" opacity="1" stroke="none"/>
<g opacity="1">
<path d="M1.81056 1.37038L6.99617 1.37038L6.99617 2.50775L1.81056 2.50775L1.81056 1.37038Z" fill="#aeb9c0" fill-rule="nonzero" opacity="1" stroke="none"/>
<path d="M2.13466 1.7214L3.43521 1.7214L3.43521 2.15646L2.13466 2.15646L2.13466 1.7214Z" fill="#728898" fill-rule="nonzero" opacity="1" stroke="none"/>
<path d="M3.68549 1.71909L4.12343 1.71909L4.12343 2.15411L3.68549 2.15411L3.68549 1.71909Z" fill="#728898" fill-rule="nonzero" opacity="1" stroke="none"/>
</g>
<g opacity="1">
<path d="M1.81144 3.10508L6.99706 3.10508L6.99706 4.24244L1.81144 4.24244L1.81144 3.10508Z" fill="#aeb9c0" fill-rule="nonzero" opacity="1" stroke="none"/>
<path d="M2.13125 3.47618L3.4318 3.47618L3.4318 3.91124L2.13125 3.91124L2.13125 3.47618Z" fill="#728898" fill-rule="nonzero" opacity="1" stroke="none"/>
<path d="M3.68743 3.48289L4.12536 3.48289L4.12536 3.91795L3.68743 3.91795L3.68743 3.48289Z" fill="#728898" fill-rule="nonzero" opacity="1" stroke="none"/>
</g>
<g opacity="1">
<path d="M1.81201 4.84968L6.99764 4.84968L6.99764 5.98705L1.81201 5.98705L1.81201 4.84968Z" fill="#aeb9c0" fill-rule="nonzero" opacity="1" stroke="none"/>
<path d="M2.13913 5.18891L3.43968 5.18891L3.43968 5.62392L2.13913 5.62392L2.13913 5.18891Z" fill="#728898" fill-rule="nonzero" opacity="1" stroke="none"/>
<path d="M3.68921 5.20138L4.12715 5.20138L4.12715 5.63639L3.68921 5.63639L3.68921 5.20138Z" fill="#728898" fill-rule="nonzero" opacity="1" stroke="none"/>
</g>
<g opacity="1">
<path d="M1.81056 6.57269L6.99617 6.57269L6.99617 7.71005L1.81056 7.71005L1.81056 6.57269Z" fill="#aeb9c0" fill-rule="nonzero" opacity="1" stroke="none"/>
<path d="M2.13968 6.91652L3.44023 6.91652L3.44023 7.35159L2.13968 7.35159L2.13968 6.91652Z" fill="#728898" fill-rule="nonzero" opacity="1" stroke="none"/>
<path d="M3.68752 6.92297L4.12545 6.92297L4.12545 7.35804L3.68752 7.35804L3.68752 6.92297Z" fill="#728898" fill-rule="nonzero" opacity="1" stroke="none"/>
</g>
</g>
<path d="M10.7116 2.44866L12.1162 2.44866L12.1162 8.34538L10.7116 8.34538L10.7116 2.44866Z" fill="#da1e7a" fill-rule="nonzero" opacity="1" stroke="none"/>
<path d="M8.50904 2.46043L9.91367 2.46043L9.91367 8.35715L8.50904 8.35715L8.50904 2.46043Z" fill="#da1e7a" fill-rule="nonzero" opacity="1" stroke="none"/>
<path d="M12.9062 4.9375L12.9062 8.375L15.1875 8.375L15.1875 4.9375L14.5625 4.9375C14.5653 5.17587 14.4325 5.39495 14.1875 5.4375C13.9154 5.48475 13.641 5.30332 13.5938 5.03125C13.5936 5.03034 13.5989 4.97741 13.5938 4.9375L12.9062 4.9375Z" fill="#d46199" fill-rule="nonzero" opacity="1" stroke="none"/>
<path d="M14.0542 5.19447C13.9882 5.19447 13.9402 5.18047 13.9102 5.15247C13.8802 5.12447 13.8652 5.07747 13.8652 5.01147C13.8652 4.95747 13.8737 4.88347 13.8907 4.78947C13.9077 4.69547 13.9322 4.59347 13.9642 4.48347C13.9222 4.28147 13.8762 4.11547 13.8262 3.98547C13.7342 3.73547 13.6242 3.61047 13.4962 3.61047C13.4742 3.61047 13.4492 3.61447 13.4212 3.62247C13.4012 3.62647 13.3807 3.61197 13.3597 3.57897C13.3387 3.54597 13.3282 3.50847 13.3282 3.46647C13.3282 3.40847 13.3482 3.35847 13.3882 3.31647C13.4282 3.27447 13.4812 3.25347 13.5472 3.25347C13.6812 3.25347 13.7952 3.32197 13.8892 3.45897C13.9832 3.59597 14.0542 3.82447 14.1022 4.14447C14.2002 3.90247 14.3117 3.69347 14.4367 3.51747C14.5617 3.34147 14.6972 3.25347 14.8432 3.25347C14.8972 3.25347 14.9392 3.26647 14.9692 3.29247C14.9992 3.31847 15.0142 3.35447 15.0142 3.40047C15.0142 3.45047 14.9992 3.50197 14.9692 3.55497C14.9392 3.60797 14.9072 3.63447 14.8732 3.63447C14.8512 3.63447 14.8332 3.63147 14.8192 3.62547C14.7992 3.61547 14.7762 3.61047 14.7502 3.61047C14.6822 3.61047 14.6107 3.65597 14.5357 3.74697C14.4607 3.83797 14.3872 3.97247 14.3152 4.15047C14.2392 4.34447 14.2012 4.53247 14.2012 4.71447C14.2012 4.81447 14.2272 4.89347 14.2792 4.95147C14.2992 4.98147 14.3092 5.00947 14.3092 5.03547C14.3092 5.08147 14.2852 5.11947 14.2372 5.14947C14.1892 5.17947 14.1282 5.19447 14.0542 5.19447Z" fill="#00b41e" fill-rule="nonzero" opacity="1" stroke="none"/>
</g>
</svg>
