<?xml version="1.0" encoding="UTF-8" standalone="no"?>
<!DOCTYPE svg PUBLIC "-//W3C//DTD SVG 1.1//EN" "http://www.w3.org/Graphics/SVG/1.1/DTD/svg11.dtd">
<!-- Created with Vectornator (http://vectornator.io/) -->
<svg height="100%" stroke-miterlimit="10" style="fill-rule:nonzero;clip-rule:evenodd;stroke-linecap:round;stroke-linejoin:round;" version="1.1" viewBox="0 0 20 20" width="100%" xml:space="preserve" xmlns="http://www.w3.org/2000/svg" xmlns:xlink="http://www.w3.org/1999/xlink">
<defs/>
<g id="图层-1">
<g opacity="1">
<path d="M14.863 0.60179C14.863 0.563678 14.8939 0.532782 14.932 0.532782L19.2811 0.532782C19.3192 0.532782 19.3501 0.563678 19.3501 0.60179L19.3501 4.67183C19.3501 4.70994 19.3192 4.74084 19.2811 4.74084L14.932 4.74084C14.8939 4.74084 14.863 4.70994 14.863 4.67183L14.863 0.60179Z" fill="#ced0d6" fill-rule="nonzero" opacity="1" stroke="none"/>
<g opacity="1">
<clipPath clip-rule="nonzero" id="ClipPath">
<path d="M14.863 0.60179C14.863 0.563678 14.8939 0.532782 14.932 0.532782L19.2811 0.532782C19.3192 0.532782 19.3501 0.563678 19.3501 0.60179L19.3501 4.67183C19.3501 4.70994 19.3192 4.74084 19.2811 4.74084L14.932 4.74084C14.8939 4.74084 14.863 4.70994 14.863 4.67183L14.863 0.60179Z"/>
</clipPath>
<g clip-path="url(#ClipPath)">
<path d="M14.863 0.60179C14.863 0.563678 14.8939 0.532782 14.932 0.532782L19.2811 0.532782C19.3192 0.532782 19.3501 0.563678 19.3501 0.60179L19.3501 4.67183C19.3501 4.70994 19.3192 4.74084 19.2811 4.74084L14.932 4.74084C14.8939 4.74084 14.863 4.70994 14.863 4.67183L14.863 0.60179Z" fill="none" opacity="1" stroke="#ced0d6" stroke-linecap="butt" stroke-linejoin="round" stroke-width="6"/>
</g>
</g>
</g>
<g opacity="1">
<g opacity="1">
<clipPath clip-rule="nonzero" id="ClipPath_2">
<path d="M7.03007 2.91654C7.03007 2.87899 7.06051 2.84856 7.09805 2.84856L16.1019 2.84856C16.1395 2.84856 16.1699 2.87899 16.1699 2.91654L16.1699 11.6023C16.1699 11.6398 16.1395 11.6703 16.1019 11.6703L7.09805 11.6703C7.06051 11.6703 7.03007 11.6398 7.03007 11.6023L7.03007 2.91654Z"/>
</clipPath>
<g clip-path="url(#ClipPath_2)">
<path d="M7.03007 2.91654C7.03007 2.87899 7.06051 2.84856 7.09805 2.84856L16.1019 2.84856C16.1395 2.84856 16.1699 2.87899 16.1699 2.91654L16.1699 11.6023C16.1699 11.6398 16.1395 11.6703 16.1019 11.6703L7.09805 11.6703C7.06051 11.6703 7.03007 11.6398 7.03007 11.6023L7.03007 2.91654Z" fill="none" opacity="1" stroke="#ced0d6" stroke-linecap="butt" stroke-linejoin="round" stroke-width="3"/>
</g>
</g>
<g opacity="1">
<clipPath clip-rule="nonzero" id="ClipPath_3">
<path d="M7.03007 2.91654C7.03007 2.87899 7.06051 2.84856 7.09805 2.84856L16.1019 2.84856C16.1395 2.84856 16.1699 2.87899 16.1699 2.91654L16.1699 11.6023C16.1699 11.6398 16.1395 11.6703 16.1019 11.6703L7.09805 11.6703C7.06051 11.6703 7.03007 11.6398 7.03007 11.6023L7.03007 2.91654Z"/>
</clipPath>
<g clip-path="url(#ClipPath_3)">
<clipPath clip-rule="nonzero" id="ClipPath_4">
<path d="M7.03007 2.91654C7.03007 2.87899 7.06051 2.84856 7.09805 2.84856L16.1019 2.84856C16.1395 2.84856 16.1699 2.87899 16.1699 2.91654L16.1699 11.6023C16.1699 11.6398 16.1395 11.6703 16.1019 11.6703L7.09805 11.6703C7.06051 11.6703 7.03007 11.6398 7.03007 11.6023L7.03007 2.91654Z"/>
</clipPath>
<g clip-path="url(#ClipPath_4)">
<path d="M7.03007 2.91654C7.03007 2.87899 7.06051 2.84856 7.09805 2.84856L16.1019 2.84856C16.1395 2.84856 16.1699 2.87899 16.1699 2.91654L16.1699 11.6023C16.1699 11.6398 16.1395 11.6703 16.1019 11.6703L7.09805 11.6703C7.06051 11.6703 7.03007 11.6398 7.03007 11.6023L7.03007 2.91654Z" fill="none" opacity="1" stroke="#ced0d6" stroke-linecap="butt" stroke-linejoin="round" stroke-width="3"/>
</g>
</g>
</g>
</g>
<g opacity="1">
<g opacity="1">
<clipPath clip-rule="evenodd" id="ClipPath_5">
<path d="M0.744184 12.814C0.744184 12.7736 0.776585 12.7407 0.816552 12.7407L19.2777 12.7407C19.3177 12.7407 19.3501 12.7736 19.3501 12.814L19.3501 19.3891C19.3501 19.4295 19.3177 19.4624 19.2777 19.4624L0.816552 19.4624C0.776585 19.4624 0.744184 19.4295 0.744184 19.3891L0.744184 12.814Z"/>
</clipPath>
<g clip-path="url(#ClipPath_5)">
<path d="M0.744184 12.814C0.744184 12.7736 0.776585 12.7407 0.816552 12.7407L19.2777 12.7407C19.3177 12.7407 19.3501 12.7736 19.3501 12.814L19.3501 19.3891C19.3501 19.4295 19.3177 19.4624 19.2777 19.4624L0.816552 19.4624C0.776585 19.4624 0.744184 19.4295 0.744184 19.3891L0.744184 12.814Z" fill="none" opacity="1" stroke="#e02ba6" stroke-linecap="butt" stroke-linejoin="round" stroke-width="4"/>
</g>
</g>
<g opacity="1">
<clipPath clip-rule="nonzero" id="ClipPath_6">
<path d="M0.744184 12.814C0.744184 12.7736 0.776585 12.7407 0.816552 12.7407L19.2777 12.7407C19.3177 12.7407 19.3501 12.7736 19.3501 12.814L19.3501 19.3891C19.3501 19.4295 19.3177 19.4624 19.2777 19.4624L0.816552 19.4624C0.776585 19.4624 0.744184 19.4295 0.744184 19.3891L0.744184 12.814Z"/>
</clipPath>
<g clip-path="url(#ClipPath_6)">
<clipPath clip-rule="evenodd" id="ClipPath_7">
<path d="M0.744184 12.814C0.744184 12.7736 0.776585 12.7407 0.816552 12.7407L19.2777 12.7407C19.3177 12.7407 19.3501 12.7736 19.3501 12.814L19.3501 19.3891C19.3501 19.4295 19.3177 19.4624 19.2777 19.4624L0.816552 19.4624C0.776585 19.4624 0.744184 19.4295 0.744184 19.3891L0.744184 12.814Z"/>
</clipPath>
<g clip-path="url(#ClipPath_7)">
<path d="M0.744184 12.814C0.744184 12.7736 0.776585 12.7407 0.816552 12.7407L19.2777 12.7407C19.3177 12.7407 19.3501 12.7736 19.3501 12.814L19.3501 19.3891C19.3501 19.4295 19.3177 19.4624 19.2777 19.4624L0.816552 19.4624C0.776585 19.4624 0.744184 19.4295 0.744184 19.3891L0.744184 12.814Z" fill="none" opacity="1" stroke="#e02ba6" stroke-linecap="butt" stroke-linejoin="round" stroke-width="4"/>
</g>
</g>
</g>
</g>
<path d="M0.744184 6.89099C0.744184 6.86338 0.77108 6.841 0.804257 6.841L5.77553 6.841C5.8087 6.841 5.8356 6.86338 5.8356 6.89099L5.8356 11.6203C5.8356 11.6479 5.8087 11.6703 5.77553 11.6703L0.804257 11.6703C0.77108 11.6703 0.744184 11.6479 0.744184 11.6203L0.744184 6.89099Z" fill="#ced0d6" fill-rule="nonzero" opacity="1" stroke="none"/>
<path d="M0.668977 1.05902C0.668977 1.01106 0.729075 0.972179 0.80321 0.972179L2.73836 0.972179C2.8125 0.972179 2.8726 1.01106 2.8726 1.05902L2.8726 5.69346C2.8726 5.74142 2.8125 5.7803 2.73836 5.7803L0.80321 5.7803C0.729075 5.7803 0.668977 5.74142 0.668977 5.69346L0.668977 1.05902Z" fill="#ced0d6" fill-rule="nonzero" opacity="1" stroke="none"/>
<path d="M17.3314 9.93217C17.3314 9.87306 17.3793 9.82513 17.4385 9.82513L19.2431 9.82513C19.3022 9.82513 19.3501 9.87306 19.3501 9.93217L19.3501 11.5632C19.3501 11.6223 19.3022 11.6703 19.2431 11.6703L17.4385 11.6703C17.3793 11.6703 17.3314 11.6223 17.3314 11.5632L17.3314 9.93217Z" fill="#e02ba6" fill-rule="nonzero" opacity="1" stroke="none"/>
<path d="M3.85317 2.81918C3.85317 2.71847 3.90024 2.63681 3.95829 2.63681L5.73048 2.63681C5.78853 2.63681 5.8356 2.71847 5.8356 2.81918L5.8356 5.59793C5.8356 5.69863 5.78853 5.7803 5.73048 5.7803L3.95829 5.7803C3.90024 5.7803 3.85317 5.69863 3.85317 5.59793L3.85317 2.81918Z" fill="#ced0d6" fill-rule="nonzero" opacity="1" stroke="none"/>
<path d="M11.6 5.56338C11.6 5.52544 11.6308 5.49468 11.6687 5.49468L13.437 5.49468C13.475 5.49468 13.5058 5.52544 13.5058 5.56338L13.5058 7.1907C13.5058 7.22865 13.475 7.25941 13.437 7.25941L11.6687 7.25941C11.6308 7.25941 11.6 7.22865 11.6 7.1907L11.6 5.56338Z" fill="#ced0d6" fill-rule="nonzero" opacity="1" stroke="none"/>
</g>
</svg>
