<?xml version="1.0" encoding="UTF-8" standalone="no"?>
<!DOCTYPE svg PUBLIC "-//W3C//DTD SVG 1.1//EN" "http://www.w3.org/Graphics/SVG/1.1/DTD/svg11.dtd">
<!-- Created with Vectornator (http://vectornator.io/) -->
<svg height="18.0pt" stroke-miterlimit="10" style="fill-rule:nonzero;clip-rule:evenodd;stroke-linecap:round;stroke-linejoin:round;" version="1.1" viewBox="0 0 18 18" width="18.0pt" xml:space="preserve" xmlns="http://www.w3.org/2000/svg" xmlns:xlink="http://www.w3.org/1999/xlink">
<defs/>
<g id="图层-1">
<g opacity="1">
<g opacity="1">
<clipPath clip-rule="nonzero" id="ClipPath">
<path d="M7.09463 3.5108C7.09463 3.47728 7.11786 3.4501 7.14649 3.4501L14.0153 3.4501C14.044 3.4501 14.0672 3.47728 14.0672 3.5108L14.0672 11.2667C14.0672 11.3002 14.044 11.3274 14.0153 11.3274L7.14649 11.3274C7.11786 11.3274 7.09463 11.3002 7.09463 11.2667L7.09463 3.5108Z"/>
</clipPath>
<g clip-path="url(#ClipPath)">
<path d="M7.09463 3.5108C7.09463 3.47728 7.11786 3.4501 7.14649 3.4501L14.0153 3.4501C14.044 3.4501 14.0672 3.47728 14.0672 3.5108L14.0672 11.2667C14.0672 11.3002 14.044 11.3274 14.0153 11.3274L7.14649 11.3274C7.11786 11.3274 7.09463 11.3002 7.09463 11.2667L7.09463 3.5108Z" fill="none" opacity="1" stroke="#6c707e" stroke-linecap="butt" stroke-linejoin="round" stroke-width="3"/>
</g>
</g>
<g opacity="1">
<clipPath clip-rule="nonzero" id="ClipPath_2">
<path d="M7.09463 3.5108C7.09463 3.47728 7.11786 3.4501 7.14649 3.4501L14.0153 3.4501C14.044 3.4501 14.0672 3.47728 14.0672 3.5108L14.0672 11.2667C14.0672 11.3002 14.044 11.3274 14.0153 11.3274L7.14649 11.3274C7.11786 11.3274 7.09463 11.3002 7.09463 11.2667L7.09463 3.5108Z"/>
</clipPath>
<g clip-path="url(#ClipPath_2)">
<clipPath clip-rule="nonzero" id="ClipPath_3">
<path d="M7.09463 3.5108C7.09463 3.47728 7.11786 3.4501 7.14649 3.4501L14.0153 3.4501C14.044 3.4501 14.0672 3.47728 14.0672 3.5108L14.0672 11.2667C14.0672 11.3002 14.044 11.3274 14.0153 11.3274L7.14649 11.3274C7.11786 11.3274 7.09463 11.3002 7.09463 11.2667L7.09463 3.5108Z"/>
</clipPath>
<g clip-path="url(#ClipPath_3)">
<path d="M7.09463 3.5108C7.09463 3.47728 7.11786 3.4501 7.14649 3.4501L14.0153 3.4501C14.044 3.4501 14.0672 3.47728 14.0672 3.5108L14.0672 11.2667C14.0672 11.3002 14.044 11.3274 14.0153 11.3274L7.14649 11.3274C7.11786 11.3274 7.09463 11.3002 7.09463 11.2667L7.09463 3.5108Z" fill="none" opacity="1" stroke="#6c707e" stroke-linecap="butt" stroke-linejoin="round" stroke-width="3"/>
</g>
</g>
</g>
</g>
<path d="M1.48172 7.05975C1.48172 7.0351 1.50573 7.01511 1.53536 7.01511L5.9744 7.01511C6.00402 7.01511 6.02804 7.0351 6.02804 7.05975L6.02804 11.2828C6.02804 11.3074 6.00402 11.3274 5.9744 11.3274L1.53536 11.3274C1.50573 11.3274 1.48172 11.3074 1.48172 11.2828L1.48172 7.05975Z" fill="#6c707e" fill-rule="nonzero" opacity="1" stroke="none"/>
<path d="M14.8684 1.81905C14.8684 1.79451 14.8771 1.77461 14.8878 1.77461L16.4988 1.77461C16.5096 1.77461 16.5183 1.79451 16.5183 1.81905L16.5183 6.02352C16.5183 6.04806 16.5096 6.06797 16.4988 6.06797L14.8878 6.06797C14.8771 6.06797 14.8684 6.04806 14.8684 6.02352L14.8684 1.81905Z" fill="#6c707e" fill-rule="nonzero" opacity="1" stroke="none"/>
<path d="M1.48172 1.85215C1.48172 1.80933 1.53538 1.77461 1.60158 1.77461L3.32955 1.77461C3.39575 1.77461 3.44942 1.80933 3.44942 1.85215L3.44942 5.99043C3.44942 6.03325 3.39575 6.06797 3.32955 6.06797L1.60158 6.06797C1.53538 6.06797 1.48172 6.03325 1.48172 5.99043L1.48172 1.85215Z" fill="#6c707e" fill-rule="nonzero" opacity="1" stroke="none"/>
<path d="M14.8683 9.77534C14.8683 9.72256 14.9075 9.67976 14.9559 9.67976L16.4309 9.67976C16.4791 9.67976 16.5183 9.72256 16.5183 9.77534L16.5183 11.2318C16.5183 11.2846 16.4791 11.3274 16.4309 11.3274L14.9559 11.3274C14.9075 11.3274 14.8683 11.2846 14.8683 11.2318L14.8683 9.77534Z" fill="#d835a4" fill-rule="nonzero" opacity="1" stroke="none"/>
<path d="M4.25785 3.20863C4.25785 3.11138 4.29988 3.03252 4.35172 3.03252L5.93418 3.03252C5.98601 3.03252 6.02804 3.11138 6.02804 3.20863L6.02804 5.89188C6.02804 5.98911 5.98601 6.06797 5.93418 6.06797L4.35172 6.06797C4.29988 6.06797 4.25785 5.98911 4.25785 5.89188L4.25785 3.20863Z" fill="#6c707e" fill-rule="nonzero" opacity="1" stroke="none"/>
<path d="M1.48172 12.3987C1.48172 12.3452 1.52055 12.3019 1.56846 12.3019L16.4315 12.3019C16.4794 12.3019 16.5183 12.3452 16.5183 12.3987L16.5183 13.9051C16.5183 13.9586 16.4794 14.0019 16.4315 14.0019L1.56846 14.0019C1.52055 14.0019 1.48172 13.9586 1.48172 13.9051L1.48172 12.3987Z" fill="#d835a4" fill-rule="nonzero" opacity="1" stroke="none"/>
<path d="M1.48172 14.9979C1.48172 14.9439 1.52097 14.9 1.56939 14.9L5.94037 14.9C5.98879 14.9 6.02804 14.9439 6.02804 14.9979L6.02804 16.5021C6.02804 16.5561 5.98879 16.6 5.94037 16.6L1.56939 16.6C1.52097 16.6 1.48172 16.5561 1.48172 16.5021L1.48172 14.9979Z" fill="#d835a4" fill-rule="nonzero" opacity="1" stroke="none"/>
<path d="M7.09463 15.0041C7.09463 14.9466 7.13633 14.9 7.18777 14.9L16.4252 14.9C16.4766 14.9 16.5183 14.9466 16.5183 15.0041L16.5183 16.4961C16.5183 16.5534 16.4766 16.6 16.4252 16.6L7.18777 16.6C7.13633 16.6 7.09463 16.5534 7.09463 16.4961L7.09463 15.0041Z" fill="#d835a4" fill-rule="nonzero" opacity="1" stroke="none"/>
</g>
</svg>
