<?xml version="1.0" encoding="UTF-8" standalone="no"?>
<!DOCTYPE svg PUBLIC "-//W3C//DTD SVG 1.1//EN" "http://www.w3.org/Graphics/SVG/1.1/DTD/svg11.dtd">
<!-- Created with Vectornator (http://vectornator.io/) -->
<svg height="12.0pt" stroke-miterlimit="10" style="fill-rule:nonzero;clip-rule:evenodd;stroke-linecap:round;stroke-linejoin:round;" version="1.1" viewBox="0 0 12 12" width="12.0pt" xml:space="preserve" xmlns="http://www.w3.org/2000/svg" xmlns:xlink="http://www.w3.org/1999/xlink">
<defs/>
<g id="xql">
<g opacity="1">
<path d="M0.5 11.3971C0.5 11.4784 0.565842 11.5442 0.647067 11.5442L11.3829 11.5442C11.4642 11.5442 11.53 11.4784 11.53 11.3971L11.53 6.54397C11.53 6.46275 11.4642 6.39691 11.3829 6.39691L0.647067 6.39691C0.565842 6.39691 0.5 6.46275 0.5 6.54397L0.5 11.3971Z" fill="#f43db4" fill-opacity="0.7" fill-rule="evenodd" opacity="1" stroke="none"/>
<path d="M7.8212 10.3122C7.88429 10.3658 7.89069 10.4609 7.83539 10.5225L7.63347 10.7475C7.57935 10.8078 7.48662 10.8129 7.4261 10.7589L7.10932 10.4761C6.80997 10.6892 6.43958 10.8109 6.0286 10.8109C4.93774 10.8109 4.17667 9.9839 4.17667 8.98436C4.17667 7.97467 4.94788 7.13753 6.03875 7.13753C7.12962 7.13753 7.89069 7.96453 7.89069 8.96406C7.89069 9.38012 7.75877 9.75558 7.53045 10.0651L7.8212 10.3122ZM6.03844 10.159C6.25756 10.159 6.4481 10.1064 6.61483 10.0109L6.1513 9.61131C6.08921 9.55777 6.08286 9.4638 6.1372 9.40247L6.35253 9.15915C6.40695 9.09767 6.5012 9.09267 6.56183 9.14805L7.03744 9.58241C7.14227 9.40085 7.16263 9.22261 7.16263 8.98377L7.16263 8.97421C7.16263 8.32447 6.69104 7.78944 6.02891 7.78944C5.36678 7.78944 4.912 8.31491 4.912 8.96465L4.912 8.97421C4.912 9.62395 5.37631 10.159 6.03844 10.159Z" fill="#231f20" fill-opacity="0.7" fill-rule="evenodd" opacity="1" stroke="none"/>
<path d="M8.58867 7.27931C8.58867 7.19804 8.65448 7.13224 8.73573 7.13224L9.17693 7.13224C9.25819 7.13224 9.324 7.19804 9.324 7.27931L9.324 9.92647C9.324 10.0077 9.38981 10.0735 9.47107 10.0735L11.0153 10.0735C11.0965 10.0735 11.1623 10.1393 11.1623 10.2206L11.1623 10.6618C11.1623 10.7431 11.0965 10.8089 11.0153 10.8089L8.73573 10.8089C8.65448 10.8089 8.58867 10.7431 8.58867 10.6618L8.58867 7.27931Z" fill="#231f20" fill-opacity="0.7" fill-rule="evenodd" opacity="1" stroke="none"/>
<path d="M4.01017 10.6371C4.07165 10.735 4.00125 10.8623 3.88561 10.8623L3.29796 10.8623C3.24464 10.8623 3.1955 10.8335 3.16952 10.7869L2.63275 9.82455C2.57743 9.72536 2.43532 9.72366 2.37763 9.82146L1.80658 10.79C1.78013 10.8348 1.73196 10.8623 1.67989 10.8623L1.13086 10.8623C1.01505 10.8623 0.944678 10.7347 1.00649 10.6368L2.0062 9.05282C2.03632 9.0051 2.03647 8.94436 2.00661 8.89649L1.06224 7.38269C1.00112 7.28467 1.07156 7.15776 1.18701 7.15776L1.75982 7.15776C1.81349 7.15776 1.8629 7.18702 1.88873 7.23401L2.38063 8.1299C2.43613 8.23094 2.58104 8.23175 2.63766 8.1313L3.14427 7.23261C3.17033 7.18636 3.2193 7.15776 3.27238 7.15776L3.81376 7.15776C3.92971 7.15776 4.00005 7.2857 3.93795 7.38357L2.99741 8.86627C2.96703 8.91414 2.96689 8.97524 2.99704 9.02326L4.01017 10.6371Z" fill="#231f20" fill-opacity="0.7" fill-rule="nonzero" opacity="1" stroke="none"/>
</g>
<g opacity="1">
<path d="M0.532068 0.616822C0.532068 0.535597 0.59791 0.469755 0.679135 0.469755L5.33222 0.469755C5.41345 0.469755 5.47929 0.535597 5.47929 0.616822L5.47929 5.77835C5.47929 5.85958 5.41345 5.92542 5.33222 5.92542L0.679135 5.92542C0.59791 5.92542 0.532068 5.85958 0.532068 5.77835L0.532068 0.616822Z" fill="#728898" fill-rule="nonzero" opacity="1" stroke="none"/>
<g opacity="1">
<path d="M1.09603 0.933658C1.09603 0.85243 1.16187 0.786588 1.2431 0.786588L4.76212 0.786588C4.84334 0.786588 4.90918 0.85243 4.90918 0.933658L4.90918 1.47587C4.90918 1.5571 4.84334 1.62294 4.76212 1.62294L1.2431 1.62294C1.16187 1.62294 1.09603 1.5571 1.09603 1.47587L1.09603 0.933658Z" fill="#aeb9c0" fill-rule="nonzero" opacity="1" stroke="none"/>
<path d="M1.33435 1.19178C1.33435 1.11055 1.4002 1.04471 1.48142 1.04471L2.14362 1.04471C2.22485 1.04471 2.29069 1.11055 2.29069 1.19178L2.29069 1.21756C2.29069 1.29878 2.22485 1.36462 2.14362 1.36462L1.48142 1.36462C1.4002 1.36462 1.33435 1.29878 1.33435 1.21756L1.33435 1.19178Z" fill="#728898" fill-rule="nonzero" opacity="1" stroke="none"/>
<path d="M2.47473 1.19008C2.47473 1.10885 2.54057 1.04301 2.6218 1.04301L2.6497 1.04301C2.73092 1.04301 2.79676 1.10885 2.79676 1.19008L2.79676 1.21583C2.79676 1.29705 2.73092 1.36289 2.6497 1.36289L2.6218 1.36289C2.54057 1.36289 2.47473 1.29705 2.47473 1.21583L2.47473 1.19008Z" fill="#728898" fill-rule="nonzero" opacity="1" stroke="none"/>
</g>
<g opacity="1">
<path d="M1.09668 2.20924C1.09668 2.12802 1.16252 2.06217 1.24375 2.06217L4.76277 2.06217C4.844 2.06217 4.90984 2.12802 4.90984 2.20924L4.90984 2.75145C4.90984 2.83267 4.844 2.89851 4.76277 2.89851L1.24375 2.89851C1.16252 2.89851 1.09668 2.83267 1.09668 2.75145L1.09668 2.20924Z" fill="#aeb9c0" fill-rule="nonzero" opacity="1" stroke="none"/>
<path d="M1.33185 2.48212C1.33185 2.4009 1.39769 2.33506 1.47891 2.33506L2.14112 2.33506C2.22234 2.33506 2.28818 2.4009 2.28818 2.48212L2.28818 2.5079C2.28818 2.58913 2.22234 2.65497 2.14112 2.65497L1.47891 2.65497C1.39769 2.65497 1.33185 2.58913 1.33185 2.5079L1.33185 2.48212Z" fill="#728898" fill-rule="nonzero" opacity="1" stroke="none"/>
<path d="M2.47616 2.48706C2.47616 2.40583 2.542 2.33999 2.62322 2.33999L2.65111 2.33999C2.73234 2.33999 2.79818 2.40583 2.79818 2.48706L2.79818 2.51284C2.79818 2.59406 2.73234 2.6599 2.65111 2.6599L2.62322 2.6599C2.542 2.6599 2.47616 2.59406 2.47616 2.51284L2.47616 2.48706Z" fill="#728898" fill-rule="nonzero" opacity="1" stroke="none"/>
</g>
<g opacity="1">
<path d="M1.0971 3.4921C1.0971 3.41088 1.16294 3.34504 1.24416 3.34504L4.7632 3.34504C4.84442 3.34504 4.91026 3.41088 4.91026 3.4921L4.91026 4.03432C4.91026 4.11554 4.84442 4.18138 4.7632 4.18138L1.24416 4.18138C1.16294 4.18138 1.0971 4.11554 1.0971 4.03432L1.0971 3.4921Z" fill="#aeb9c0" fill-rule="nonzero" opacity="1" stroke="none"/>
<path d="M1.33764 3.74155C1.33764 3.66033 1.40348 3.59448 1.48471 3.59448L2.14691 3.59448C2.22814 3.59448 2.29398 3.66033 2.29398 3.74155L2.29398 3.76729C2.29398 3.84852 2.22814 3.91436 2.14691 3.91436L1.48471 3.91436C1.40348 3.91436 1.33764 3.84852 1.33764 3.76729L1.33764 3.74155Z" fill="#728898" fill-rule="nonzero" opacity="1" stroke="none"/>
<path d="M2.47747 3.75072C2.47747 3.6695 2.54331 3.60365 2.62453 3.60365L2.65243 3.60365C2.73366 3.60365 2.7995 3.6695 2.7995 3.75072L2.7995 3.77646C2.7995 3.85769 2.73366 3.92353 2.65243 3.92353L2.62453 3.92353C2.54331 3.92353 2.47747 3.85769 2.47747 3.77646L2.47747 3.75072Z" fill="#728898" fill-rule="nonzero" opacity="1" stroke="none"/>
</g>
<g opacity="1">
<path d="M1.09603 4.75909C1.09603 4.67787 1.16187 4.61202 1.2431 4.61202L4.76212 4.61202C4.84334 4.61202 4.90918 4.67787 4.90918 4.75909L4.90918 5.3013C4.90918 5.38252 4.84334 5.44836 4.76212 5.44836L1.2431 5.44836C1.16187 5.44836 1.09603 5.38252 1.09603 5.3013L1.09603 4.75909Z" fill="#aeb9c0" fill-rule="nonzero" opacity="1" stroke="none"/>
<path d="M1.33804 5.01192C1.33804 4.9307 1.40389 4.86485 1.48511 4.86485L2.14732 4.86485C2.22854 4.86485 2.29438 4.9307 2.29438 5.01192L2.29438 5.03771C2.29438 5.11893 2.22854 5.18477 2.14732 5.18477L1.48511 5.18477C1.40389 5.18477 1.33804 5.11893 1.33804 5.03771L1.33804 5.01192Z" fill="#728898" fill-rule="nonzero" opacity="1" stroke="none"/>
<path d="M2.47622 5.01666C2.47622 4.93544 2.54206 4.8696 2.62329 4.8696L2.65118 4.8696C2.73241 4.8696 2.79825 4.93544 2.79825 5.01666L2.79825 5.04245C2.79825 5.12368 2.73241 5.18952 2.65118 5.18952L2.62329 5.18952C2.54206 5.18952 2.47622 5.12368 2.47622 5.04245L2.47622 5.01666Z" fill="#728898" fill-rule="nonzero" opacity="1" stroke="none"/>
</g>
</g>
<path d="M7.64126 1.72655C7.64126 1.64533 7.70708 1.57949 7.78833 1.57949L8.52705 1.57949C8.6083 1.57949 8.67411 1.64533 8.67411 1.72655L8.67411 5.76848C8.67411 5.84969 8.6083 5.91554 8.52705 5.91554L7.78833 5.91554C7.70708 5.91554 7.64126 5.84969 7.64126 5.76848L7.64126 1.72655Z" fill="#da1e7a" fill-rule="nonzero" opacity="1" stroke="none"/>
<path d="M6.02165 1.73521C6.02165 1.65398 6.08749 1.58814 6.16871 1.58814L6.90745 1.58814C6.98868 1.58814 7.05452 1.65398 7.05452 1.73521L7.05452 5.77713C7.05452 5.85835 6.98868 5.9242 6.90745 5.9242L6.16871 5.9242C6.08749 5.9242 6.02165 5.85835 6.02165 5.77713L6.02165 1.73521Z" fill="#da1e7a" fill-rule="nonzero" opacity="1" stroke="none"/>
<path d="M9.40386 3.40961C9.32165 3.40961 9.25503 3.47626 9.25503 3.55847L9.25503 5.78846C9.25503 5.87067 9.32165 5.93732 9.40386 5.93732L10.7837 5.93732C10.8659 5.93732 10.9325 5.87067 10.9325 5.78846L10.9325 3.55847C10.9325 3.47626 10.8659 3.40961 10.7837 3.40961L10.473 3.40961C10.475 3.5849 10.3774 3.74599 10.1972 3.77728C9.99712 3.81203 9.79535 3.67861 9.76064 3.47855C9.76049 3.47788 9.76439 3.43896 9.76064 3.40961L9.40386 3.40961Z" fill="#d46199" fill-rule="nonzero" opacity="1" stroke="none"/>
<path d="M10.0992 3.59857C10.0507 3.59857 10.0154 3.58828 9.9933 3.56769C9.97124 3.5471 9.96021 3.51254 9.96021 3.46401C9.96021 3.4243 9.96646 3.36988 9.97896 3.30076C9.99146 3.23164 10.0095 3.15664 10.033 3.07575C10.0021 2.92721 9.9683 2.80515 9.93153 2.70955C9.86388 2.52572 9.783 2.4338 9.68887 2.4338C9.6727 2.4338 9.65431 2.43675 9.63372 2.44263C9.61902 2.44557 9.60394 2.43491 9.5885 2.41064C9.57306 2.38638 9.56534 2.3588 9.56534 2.32792C9.56534 2.28527 9.58004 2.2485 9.60946 2.21762C9.63887 2.18673 9.67784 2.17129 9.72637 2.17129C9.82491 2.17129 9.90874 2.22166 9.97786 2.3224C10.047 2.42314 10.0992 2.59117 10.1345 2.82647C10.2065 2.64852 10.2885 2.49484 10.3805 2.36542C10.4724 2.236 10.572 2.17129 10.6794 2.17129C10.7191 2.17129 10.75 2.18085 10.772 2.19997C10.7941 2.21909 10.8051 2.24556 10.8051 2.27938C10.8051 2.31615 10.7941 2.35402 10.772 2.39299C10.75 2.43197 10.7264 2.45145 10.7014 2.45145C10.6852 2.45145 10.672 2.44925 10.6617 2.44483C10.647 2.43748 10.6301 2.4338 10.611 2.4338C10.561 2.4338 10.5084 2.46726 10.4533 2.53418C10.3981 2.60109 10.3441 2.7 10.2911 2.83088C10.2352 2.97354 10.2073 3.11178 10.2073 3.24561C10.2073 3.31915 10.2264 3.37724 10.2646 3.41989C10.2793 3.44195 10.2867 3.46254 10.2867 3.48165C10.2867 3.51548 10.2691 3.54342 10.2338 3.56548C10.1985 3.58754 10.1536 3.59857 10.0992 3.59857Z" fill="#00b41e" fill-rule="nonzero" opacity="1" stroke="none"/>
</g>
</svg>
