<?xml version="1.0" encoding="UTF-8" standalone="no"?>
<!DOCTYPE svg PUBLIC "-//W3C//DTD SVG 1.1//EN" "http://www.w3.org/Graphics/SVG/1.1/DTD/svg11.dtd">
<!-- Created with Vectornator (http://vectornator.io/) -->
<svg height="100%" stroke-miterlimit="10" style="fill-rule:nonzero;clip-rule:evenodd;stroke-linecap:round;stroke-linejoin:round;" version="1.1" viewBox="0 0 16 16" width="100%" xml:space="preserve" xmlns="http://www.w3.org/2000/svg" xmlns:xlink="http://www.w3.org/1999/xlink">
<defs/>
<g id="xql">
<g opacity="1">
<path d="M1 16L16 16L16 9L1 9L1 16Z" fill="#f43db4" fill-opacity="0.7" fill-rule="evenodd" opacity="1" stroke="none"/>
<path d="M11.1129 14.4577L10.5678 15.0649L9.9882 14.5474C9.5811 14.8372 9.0774 15.0028 8.5185 15.0028C7.035 15.0028 6 13.8781 6 12.5188C6 11.1457 7.0488 10.0072 8.5323 10.0072C10.0158 10.0072 11.0508 11.1319 11.0508 12.4912C11.0508 13.057 10.8714 13.5676 10.5609 13.9885L11.1129 14.4577ZM8.53188 14.1162C8.82987 14.1162 9.08899 14.0447 9.31572 13.9148L8.53188 13.2391L9.09365 12.6044L9.89045 13.3321C10.033 13.0852 10.0607 12.8428 10.0607 12.518L10.0607 12.505C10.0607 11.6214 9.41937 10.8938 8.51892 10.8938C7.61847 10.8938 7 11.6084 7 12.492L7 12.505C7 13.3886 7.63143 14.1162 8.53188 14.1162Z" fill="#231f20" fill-opacity="0.7" fill-rule="evenodd" opacity="1" stroke="none"/>
<path d="M12 10L13 10L13 14L15.5 14L15.5 15L12 15L12 10Z" fill="#231f20" fill-opacity="0.7" fill-rule="evenodd" opacity="1" stroke="none"/>
<path d="M2.97277 11.5015C2.97277 11.1331 3.284 11 3.845 11C3.85033 11 4.23533 11 5 11L5 10C4.26267 10 3.88267 10 3.86 10C2.778 10 2 10.4592 2 11.45C2 12.3145 2.41956 12.6905 3.47125 12.9161C4.24159 13.0813 4.49615 13.2286 4.49615 13.548C4.49615 13.8674 4.13843 14 3.47125 14C3.46059 14 3.07017 14 2.3 14L2.3 15C3.0755 15 3.46592 15 3.47125 15C5.5 15 5.5 14 5.5 13.548C5.5 12.9161 5.02026 12.4207 4.15869 12.1469C3.29712 11.873 2.97277 11.87 2.97277 11.5015Z" fill="#231f20" fill-opacity="0.7" fill-rule="evenodd" opacity="0" stroke="none"/>
<path d="M5.96589 15.0727L4.68757 15.0727L3.73054 13.3569L2.71882 15.0727L1.49518 15.0727L3.1153 12.5058L1.5738 10.0347L2.83161 10.0347L3.73054 11.6719L4.65339 10.0347L5.87018 10.0347L4.32868 12.4648L5.96589 15.0727Z" fill="#231f20" fill-opacity="0.7" fill-rule="nonzero" opacity="1" stroke="none"/>
</g>
<path d="M1.04361 0.93951L7.77147 0.93951L7.77147 8.35881L1.04361 8.35881L1.04361 0.93951Z" fill="#728898" fill-rule="nonzero" opacity="1" stroke="none"/>
<path d="M1.81056 6.57269L6.99617 6.57269L6.99617 7.71005L1.81056 7.71005L1.81056 6.57269Z" fill="#aeb9c0" fill-rule="nonzero" opacity="1" stroke="none"/>
<path d="M1.81201 4.84968L6.99764 4.84968L6.99764 5.98705L1.81201 5.98705L1.81201 4.84968Z" fill="#aeb9c0" fill-rule="nonzero" opacity="1" stroke="none"/>
<path d="M1.81144 3.10508L6.99706 3.10508L6.99706 4.24244L1.81144 4.24244L1.81144 3.10508Z" fill="#aeb9c0" fill-rule="nonzero" opacity="1" stroke="none"/>
<path d="M1.81056 1.37038L6.99617 1.37038L6.99617 2.50775L1.81056 2.50775L1.81056 1.37038Z" fill="#aeb9c0" fill-rule="nonzero" opacity="1" stroke="none"/>
<path d="M2.13466 1.7214L3.43521 1.7214L3.43521 2.15646L2.13466 2.15646L2.13466 1.7214Z" fill="#728898" fill-rule="nonzero" opacity="1" stroke="none"/>
<path d="M2.13125 3.47618L3.4318 3.47618L3.4318 3.91124L2.13125 3.91124L2.13125 3.47618Z" fill="#728898" fill-rule="nonzero" opacity="1" stroke="none"/>
<path d="M2.13913 5.18891L3.43968 5.18891L3.43968 5.62392L2.13913 5.62392L2.13913 5.18891Z" fill="#728898" fill-rule="nonzero" opacity="1" stroke="none"/>
<path d="M2.13968 6.91652L3.44023 6.91652L3.44023 7.35159L2.13968 7.35159L2.13968 6.91652Z" fill="#728898" fill-rule="nonzero" opacity="1" stroke="none"/>
<path d="M3.68549 1.71909L4.12343 1.71909L4.12343 2.15411L3.68549 2.15411L3.68549 1.71909Z" fill="#728898" fill-rule="nonzero" opacity="1" stroke="none"/>
<path d="M3.68743 3.48289L4.12536 3.48289L4.12536 3.91795L3.68743 3.91795L3.68743 3.48289Z" fill="#728898" fill-rule="nonzero" opacity="1" stroke="none"/>
<path d="M3.68921 5.20138L4.12715 5.20138L4.12715 5.63639L3.68921 5.63639L3.68921 5.20138Z" fill="#728898" fill-rule="nonzero" opacity="1" stroke="none"/>
<path d="M3.68752 6.92297L4.12545 6.92297L4.12545 7.35804L3.68752 7.35804L3.68752 6.92297Z" fill="#728898" fill-rule="nonzero" opacity="1" stroke="none"/>
<path d="M8.50904 2.46043L9.91367 2.46043L9.91367 8.35715L8.50904 8.35715L8.50904 2.46043Z" fill="#728898" fill-rule="nonzero" opacity="1" stroke="none"/>
<path d="M10.7116 2.44866L12.1162 2.44866L12.1162 8.34538L10.7116 8.34538L10.7116 2.44866Z" fill="#728898" fill-rule="nonzero" opacity="1" stroke="none"/>
<path d="M12.913 4.93902L15.1979 4.93902L15.1979 8.36408L12.913 8.36408L12.913 4.93902Z" fill="#a9b2b9" fill-rule="nonzero" opacity="1" stroke="none"/>
</g>
</svg>
