<?xml version="1.0" encoding="UTF-8" standalone="no"?>
<!DOCTYPE svg PUBLIC "-//W3C//DTD SVG 1.1//EN" "http://www.w3.org/Graphics/SVG/1.1/DTD/svg11.dtd">
<!-- Created with Vectornator (http://vectornator.io/) -->
<svg height="18.0pt" stroke-miterlimit="10" style="fill-rule:nonzero;clip-rule:evenodd;stroke-linecap:round;stroke-linejoin:round;" version="1.1" viewBox="0 0 18 18" width="18.0pt" xml:space="preserve" xmlns="http://www.w3.org/2000/svg" xmlns:xlink="http://www.w3.org/1999/xlink">
<defs/>
<g id="图层-1">
<g opacity="1">
<g opacity="1">
<clipPath clip-rule="nonzero" id="ClipPath">
<path d="M6.34905 2.66133C6.34905 2.62781 6.37623 2.60063 6.40975 2.60063L14.4497 2.60063C14.4832 2.60063 14.5104 2.62781 14.5104 2.66133L14.5104 10.4172C14.5104 10.4507 14.4832 10.4779 14.4497 10.4779L6.40975 10.4779C6.37623 10.4779 6.34905 10.4507 6.34905 10.4172L6.34905 2.66133Z"/>
</clipPath>
<g clip-path="url(#ClipPath)">
<path d="M6.34905 2.66133C6.34905 2.62781 6.37623 2.60063 6.40975 2.60063L14.4497 2.60063C14.4832 2.60063 14.5104 2.62781 14.5104 2.66133L14.5104 10.4172C14.5104 10.4507 14.4832 10.4779 14.4497 10.4779L6.40975 10.4779C6.37623 10.4779 6.34905 10.4507 6.34905 10.4172L6.34905 2.66133Z" fill="none" opacity="1" stroke="#ced0d6" stroke-linecap="butt" stroke-linejoin="round" stroke-width="3"/>
</g>
</g>
<g opacity="1">
<clipPath clip-rule="nonzero" id="ClipPath_2">
<path d="M6.34905 2.66133C6.34905 2.62781 6.37623 2.60063 6.40975 2.60063L14.4497 2.60063C14.4832 2.60063 14.5104 2.62781 14.5104 2.66133L14.5104 10.4172C14.5104 10.4507 14.4832 10.4779 14.4497 10.4779L6.40975 10.4779C6.37623 10.4779 6.34905 10.4507 6.34905 10.4172L6.34905 2.66133Z"/>
</clipPath>
<g clip-path="url(#ClipPath_2)">
<clipPath clip-rule="nonzero" id="ClipPath_3">
<path d="M6.34905 2.66133C6.34905 2.62781 6.37623 2.60063 6.40975 2.60063L14.4497 2.60063C14.4832 2.60063 14.5104 2.62781 14.5104 2.66133L14.5104 10.4172C14.5104 10.4507 14.4832 10.4779 14.4497 10.4779L6.40975 10.4779C6.37623 10.4779 6.34905 10.4507 6.34905 10.4172L6.34905 2.66133Z"/>
</clipPath>
<g clip-path="url(#ClipPath_3)">
<path d="M6.34905 2.66133C6.34905 2.62781 6.37623 2.60063 6.40975 2.60063L14.4497 2.60063C14.4832 2.60063 14.5104 2.62781 14.5104 2.66133L14.5104 10.4172C14.5104 10.4507 14.4832 10.4779 14.4497 10.4779L6.40975 10.4779C6.37623 10.4779 6.34905 10.4507 6.34905 10.4172L6.34905 2.66133Z" fill="none" opacity="1" stroke="#ced0d6" stroke-linecap="butt" stroke-linejoin="round" stroke-width="3"/>
</g>
</g>
</g>
</g>
<g opacity="1">
<g opacity="1">
<clipPath clip-rule="nonzero" id="ClipPath_4">
<path d="M0.736132 11.4992C0.736132 11.4631 0.765064 11.4337 0.800753 11.4337L17.2855 11.4337C17.3212 11.4337 17.3501 11.4631 17.3501 11.4992L17.3501 17.3703C17.3501 17.4064 17.3212 17.4358 17.2855 17.4358L0.800753 17.4358C0.765064 17.4358 0.736132 17.4064 0.736132 17.3703L0.736132 11.4992Z"/>
</clipPath>
<g clip-path="url(#ClipPath_4)">
<path d="M0.736132 11.4992C0.736132 11.4631 0.765064 11.4337 0.800753 11.4337L17.2855 11.4337C17.3212 11.4337 17.3501 11.4631 17.3501 11.4992L17.3501 17.3703C17.3501 17.4064 17.3212 17.4358 17.2855 17.4358L0.800753 17.4358C0.765064 17.4358 0.736132 17.4064 0.736132 17.3703L0.736132 11.4992Z" fill="none" opacity="1" stroke="#e02ba6" stroke-linecap="butt" stroke-linejoin="round" stroke-width="4"/>
</g>
</g>
<g opacity="1">
<clipPath clip-rule="nonzero" id="ClipPath_5">
<path d="M0.736132 11.4992C0.736132 11.4631 0.765064 11.4337 0.800753 11.4337L17.2855 11.4337C17.3212 11.4337 17.3501 11.4631 17.3501 11.4992L17.3501 17.3703C17.3501 17.4064 17.3212 17.4358 17.2855 17.4358L0.800753 17.4358C0.765064 17.4358 0.736132 17.4064 0.736132 17.3703L0.736132 11.4992Z"/>
</clipPath>
<g clip-path="url(#ClipPath_5)">
<clipPath clip-rule="nonzero" id="ClipPath_6">
<path d="M0.736132 11.4992C0.736132 11.4631 0.765064 11.4337 0.800753 11.4337L17.2855 11.4337C17.3212 11.4337 17.3501 11.4631 17.3501 11.4992L17.3501 17.3703C17.3501 17.4064 17.3212 17.4358 17.2855 17.4358L0.800753 17.4358C0.765064 17.4358 0.736132 17.4064 0.736132 17.3703L0.736132 11.4992Z"/>
</clipPath>
<g clip-path="url(#ClipPath_6)">
<path d="M0.736132 11.4992C0.736132 11.4631 0.765064 11.4337 0.800753 11.4337L17.2855 11.4337C17.3212 11.4337 17.3501 11.4631 17.3501 11.4992L17.3501 17.3703C17.3501 17.4064 17.3212 17.4358 17.2855 17.4358L0.800753 17.4358C0.765064 17.4358 0.736132 17.4064 0.736132 17.3703L0.736132 11.4992Z" fill="none" opacity="1" stroke="#e02ba6" stroke-linecap="butt" stroke-linejoin="round" stroke-width="4"/>
</g>
</g>
</g>
</g>
<path d="M0.736132 6.21028C0.736132 6.18563 0.760149 6.16564 0.789774 6.16564L5.22882 6.16564C5.25844 6.16564 5.28246 6.18563 5.28246 6.21028L5.28246 10.4333C5.28246 10.4579 5.25844 10.4779 5.22882 10.4779L0.789774 10.4779C0.760149 10.4779 0.736132 10.4579 0.736132 10.4333L0.736132 6.21028Z" fill="#ced0d6" fill-rule="nonzero" opacity="1" stroke="none"/>
<path d="M13.338 0.690577C13.338 0.66882 13.3592 0.651184 13.3853 0.651184L17.3028 0.651184C17.3289 0.651184 17.3501 0.66882 17.3501 0.690577L17.3501 4.41736C17.3501 4.43911 17.3289 4.45676 17.3028 4.45676L13.3853 4.45676C13.3592 4.45676 13.338 4.43911 13.338 4.41736L13.338 0.690577Z" fill="#ced0d6" fill-rule="nonzero" opacity="1" stroke="none"/>
<path d="M0.668977 1.00268C0.668977 0.959856 0.722641 0.925137 0.788839 0.925137L2.51681 0.925137C2.58301 0.925137 2.63668 0.959856 2.63668 1.00268L2.63668 5.14096C2.63668 5.18378 2.58301 5.2185 2.51681 5.2185L0.788839 5.2185C0.722641 5.2185 0.668977 5.18378 0.668977 5.14096L0.668977 1.00268Z" fill="#ced0d6" fill-rule="nonzero" opacity="1" stroke="none"/>
<path d="M15.5475 8.92587C15.5475 8.87309 15.5903 8.83029 15.6432 8.83029L17.2546 8.83029C17.3073 8.83029 17.3501 8.87309 17.3501 8.92587L17.3501 10.3823C17.3501 10.4351 17.3073 10.4779 17.2546 10.4779L15.6432 10.4779C15.5903 10.4779 15.5475 10.4351 15.5475 10.3823L15.5475 8.92587Z" fill="#e02ba6" fill-rule="nonzero" opacity="1" stroke="none"/>
<path d="M3.51227 2.5744C3.51227 2.48447 3.5543 2.41155 3.60614 2.41155L5.1886 2.41155C5.24043 2.41155 5.28246 2.48447 5.28246 2.5744L5.28246 5.05566C5.28246 5.14557 5.24043 5.2185 5.1886 5.2185L3.60614 5.2185C3.5543 5.2185 3.51227 5.14557 3.51227 5.05566L3.51227 2.5744Z" fill="#ced0d6" fill-rule="nonzero" opacity="1" stroke="none"/>
<path d="M10.4297 5.0248C10.4297 4.99093 10.4572 4.96346 10.4911 4.96346L12.0701 4.96346C12.104 4.96346 12.1315 4.99093 12.1315 5.0248L12.1315 6.4779C12.1315 6.51179 12.104 6.53926 12.0701 6.53926L10.4911 6.53926C10.4572 6.53926 10.4297 6.51179 10.4297 6.4779L10.4297 5.0248Z" fill="#ced0d6" fill-rule="nonzero" opacity="1" stroke="none"/>
</g>
</svg>
